<?xml version="1.0" standalone="no"?>
<!DOCTYPE svg PUBLIC "-//W3C//DTD SVG 1.1//EN" "http://www.w3.org/Graphics/SVG/1.1/DTD/svg11.dtd" >
<svg xmlns="http://www.w3.org/2000/svg">
<metadata>Generated by IcoMoon</metadata>
<defs>
<font id="icomoon" horiz-adv-x="1024">
<font-face units-per-em="1024" ascent="960" descent="-64" />
<missing-glyph horiz-adv-x="1024" />
<glyph unicode="&#x20;" horiz-adv-x="512" d="" />
<glyph unicode="&#xe900;" glyph-name="oi-soft-thumb-up" d="M352 544h-192.061c-35.313 0-63.939-28.482-63.939-64.003v-415.993c0-35.348 28.375-64.003 63.939-64.003h623.792c44.331 0 80.269 35.509 80.269 80 0 18.010-5.931 34.63-15.976 48.001 44.197 0.156 79.976 35.607 79.976 79.999 0 20.345-7.568 38.916-20.087 53.034 30.43 11.302 52.087 40.428 52.087 74.966 0 20.345-7.568 38.916-20.087 53.034 30.43 11.302 52.087 40.428 52.087 74.966 0 44.183-35.693 80-80.269 80h-191.739c33.578 160.539 17.492 352-111.992 352s-61.877-153.205-112-248.406c-50.123-95.202-144-103.594-144-103.594v0 0zM159.705 512h160.295v-480h-160.295c-17.274 0-31.705 14.434-31.705 32.239v415.521c0 17.874 14.195 32.239 31.705 32.239zM224 96c17.673 0 32 14.327 32 32s-14.327 32-32 32c-17.673 0-32-14.327-32-32s14.327-32 32-32v0 0zM681.6 512h230.621c26.535 0 47.779-21.49 47.779-48 0-26.694-21.391-48-47.779-48h-112.221v-32h80.221c26.535 0 47.779-21.49 47.779-48 0-26.694-21.391-48-47.779-48h-112.221v-32h80.221c26.535 0 47.779-21.49 47.779-48 0-26.694-21.391-48-47.779-48h-112.221v-32h47.946c26.576 0 48.054-21.49 48.054-48 0-26.694-21.514-48-48.054-48h-431.946c0 0 0 416 0 480 48 0 89.792 32 89.792 32 29.127 18.186 60.678 45.703 82.083 86.359 50.123 95.202-7.742 233.641 84.125 233.641 94.728 0 110.337-155.288 80.038-320 0 0-6.437-32-6.437-32v0 0z" />
<glyph unicode="&#xe901;" glyph-name="oi-soft-thumb-down" d="M320 352h-192.061c-35.313 0-63.939 28.482-63.939 64.003v415.993c0 35.348 28.375 64.003 63.939 64.003h623.792c44.331 0 80.269-35.509 80.269-80 0-18.010-5.931-34.63-15.976-48.001 44.197-0.156 79.976-35.607 79.976-79.999 0-20.345-7.568-38.916-20.087-53.034 30.43-11.302 52.087-40.428 52.087-74.966 0-20.345-7.568-38.916-20.087-53.034 30.43-11.302 52.087-40.428 52.087-74.966 0-44.183-35.693-80-80.269-80h-191.739c33.578-160.539 17.492-352-111.992-352s-61.877 153.205-112 248.406c-50.123 95.202-144 103.594-144 103.594v0 0zM127.705 384h160.295v480h-160.295c-17.274 0-31.705-14.434-31.705-32.239v-415.521c0-17.874 14.195-32.239 31.705-32.239zM192 800c17.673 0 32-14.327 32-32s-14.327-32-32-32c-17.673 0-32 14.327-32 32s14.327 32 32 32v0 0zM649.6 384h230.621c26.535 0 47.779 21.49 47.779 48 0 26.694-21.391 48-47.779 48h-112.221v32h80.221c26.535 0 47.779 21.49 47.779 48 0 26.694-21.391 48-47.779 48h-112.221v32h80.221c26.535 0 47.779 21.49 47.779 48 0 26.694-21.391 48-47.779 48h-112.221v32h47.946c26.576 0 48.054 21.49 48.054 48 0 26.694-21.514 48-48.054 48h-431.946c0 0 0-416 0-480 48 0 89.792-32 89.792-32 29.127-18.186 60.678-45.703 82.083-86.359 50.123-95.202-7.742-233.641 84.125-233.641 94.728 0 110.337 155.288 80.038 320 0 0-6.437 32-6.437 32v0 0z" />
<glyph unicode="&#xe902;" glyph-name="oi-arrow_left" d="M449.293 726.627c12.497-12.497 12.497-32.758 0-45.255l-201.371-201.373h605.412c17.673 0 32-14.327 32-32s-14.327-32-32-32h-605.412l201.371-201.374c12.497-12.497 12.497-32.755 0-45.252s-32.757-12.497-45.254 0l-256 256c-12.497 12.497-12.497 32.755 0 45.252l256 256.001c12.497 12.497 32.756 12.497 45.254 0z" />
<glyph unicode="&#xe903;" glyph-name="oi-bold-apps_icons-1" d="M233.3 521.3c5.718-5.964 13.751-9.671 22.65-9.671s16.932 3.706 22.639 9.66l0.011 0.011 193.5 199.66c56.3 58 53 154.2-9.82 207.76-54.78 46.68-136.28 38.28-186.56-13.6l-19.72-20.28-19.7 20.28c-50.2 51.88-131.8 60.28-186.58 13.6-62.82-53.56-66-149.7-10-207.76zM521.14 320.32h-96l-14.16 28.48c-8.010 20.951-27.948 35.56-51.298 35.56-0.008 0-0.016 0-0.024 0h-143.419c-0.007 0-0.015 0-0.022 0-23.35 0-43.287-14.609-51.171-35.185l-0.126-0.375-14-28.48h-96c-0.006 0-0.013 0-0.020 0-30.32 0-54.9-24.58-54.9-54.9 0-0.007 0-0.014 0-0.021v0.001-274.5c0-0.006 0-0.013 0-0.020 0-30.302 24.559-54.869 54.859-54.88h466.281c30.303 0.023 54.86 24.594 54.86 54.9v0 274.5c0 0.006 0 0.013 0 0.020 0 30.306-24.557 54.877-54.858 54.9h-0.002zM288 24c-57.438 0-104 46.562-104 104s46.562 104 104 104c57.438 0 104-46.562 104-104v0c0-57.438-46.562-104-104-104v0zM998.8 255.8h-121.16l44.72 101.5c4.2 13.3-7.86 26.42-24.36 26.42h-151.18c-12.6 0-23.32-7.8-25-18.2l-33.6-213.86c-2-12.6 9.76-23.78 25-23.78h124.62l-48.4-166c-3.78-13.3 8.4-25.8 24.46-25.8 0.208-0.006 0.453-0.009 0.698-0.009 8.603 0 16.249 4.096 21.094 10.445l0.047 0.064 184.8 277.82c9.76 13.82-2.32 31.4-21.74 31.4zM956.16 959.34l-297.14-45.68c-29.28-4.5-51.020-31.5-51.020-63.32v-213.54c-9.574 2.061-20.612 3.294-31.919 3.399l-0.081 0.001c-70.7 0-128-42.96-128-96s57.3-96 128-96c70.4 0 127.46 42.64 128 95.32v217.16l224 34.44v-94.36c-9.574 2.061-20.612 3.294-31.919 3.399l-0.081 0.001c-70.7 0-128-42.96-128-96s57.3-96 128-96c70.4 0 127.46 42.64 128 95.32v288.52c0 38.96-32 68.84-67.84 63.34z" />
<glyph unicode="&#xe904;" glyph-name="oi-bold-heart" d="M85.333 570.15c0-207.484 171.496-318.050 297.034-417.015 44.3-34.923 86.966-67.802 129.633-67.802s85.333 32.879 129.634 67.802c125.538 98.965 297.033 209.532 297.033 417.015 0 207.485-234.675 354.63-426.667 155.156-191.993 199.474-426.667 52.329-426.667-155.156z" />
<glyph unicode="&#xe905;" glyph-name="oi-bold-more_vertical" d="M512 277.333c47.128 0 85.333-38.205 85.333-85.333s-38.205-85.333-85.333-85.333c-47.128 0-85.333 38.205-85.333 85.333v0c0 47.128 38.205 85.333 85.333 85.333v0zM426.667 704c0-47.128 38.205-85.333 85.333-85.333s85.333 38.205 85.333 85.333c0 47.128-38.205 85.333-85.333 85.333v0c-47.128 0-85.333-38.205-85.333-85.333v0zM426.667 448c0-47.128 38.205-85.333 85.333-85.333s85.333 38.205 85.333 85.333c0 47.128-38.205 85.333-85.333 85.333v0c-47.128 0-85.333-38.205-85.333-85.333v0z" />
<glyph unicode="&#xe906;" glyph-name="oi-bold-recycle_bin" d="M878.228 820.506c0 0 5.954-4.2-86.678 23.932-83.040 25.208-161.59 30.618-161.59 30.618l-5.444 38.594c-3.742 26.636-25.548 46.35-51.232 46.35h-122.604c-25.65 0-47.458-19.714-51.232-46.35l-5.444-38.594c0 0-78.516-5.41-161.556-30.618-92.666-28.134-86.712-23.932-86.712-23.932-20.648-5.698-35.072-25.31-35.072-47.728v-33.39h802.674v33.39c0 22.418-14.426 42.030-35.11 47.728zM177.186 30.538c4.728-53.51 49.548-94.538 103.282-94.538h463.048c53.714 0 98.552 41.028 103.28 94.538l51.284 654.42h-772.176l51.282-654.42zM684.032 540.192c1.020 16.804 15.462 29.614 32.268 28.592 16.804-1.020 29.596-15.462 28.592-32.268l-28.984-478.986c-1.020-16.804-15.462-29.596-32.266-28.576-16.806 1.020-29.612 15.444-28.592 32.25l28.982 478.988zM481.502 538.354c0 16.84 13.642 30.482 30.48 30.482 16.84 0 30.48-13.642 30.48-30.482v-478.984c0-16.84-13.642-30.48-30.48-30.48-16.84 0-30.48 13.642-30.48 30.48v478.984zM307.666 568.784c16.806 1.020 31.248-11.788 32.268-28.592l29.018-478.984c1.020-16.806-11.788-31.23-28.592-32.25-16.806-1.020-31.248 11.772-32.268 28.576l-29.018 478.986c-1.022 16.802 11.786 31.244 28.592 32.264z" />
<glyph unicode="&#xe907;" glyph-name="oi-bold-right_alt_text_bubble" d="M0 320q0-79.872 56.32-136.192t136.192-56.32h384l128-191.488 128 191.488q78.848 0 135.168 56.32t56.32 136.192v447.488q0 79.872-56.32 136.192t-135.168 56.32h-640q-79.872 0-136.192-56.32t-56.32-136.192v-447.488zM192.512 320v63.488h319.488v-63.488h-319.488zM192.512 448v63.488h640v-63.488h-640zM192.512 576v63.488h640v-63.488h-640zM192.512 704v63.488h640v-63.488h-640z" />
<glyph unicode="&#xe908;" glyph-name="oi-bolid-more_horizontal" d="M341.333 448c0-47.128-38.205-85.333-85.333-85.333s-85.333 38.205-85.333 85.333c0 47.128 38.205 85.333 85.333 85.333v0c47.128 0 85.333-38.205 85.333-85.333v0zM768 533.333c-47.128 0-85.333-38.205-85.333-85.333s38.205-85.333 85.333-85.333c47.128 0 85.333 38.205 85.333 85.333v0c0 47.128-38.205 85.333-85.333 85.333v0zM512 533.333c-47.128 0-85.333-38.205-85.333-85.333s38.205-85.333 85.333-85.333c47.128 0 85.333 38.205 85.333 85.333v0c0 47.128-38.205 85.333-85.333 85.333v0z" />
<glyph unicode="&#xe909;" glyph-name="oi-circle_check" d="M955.711 823.447c-18.111-0.007-35.477-7.203-48.278-20.006l-446.486-446.486-109.311 215.126c-26.66 26.659-69.897 26.672-96.572 0.029s-26.688-69.854-0.029-96.514l157.611-263.426c26.673-26.667 69.928-26.667 96.601 0l494.786 494.786c26.662 26.66 26.649 69.873-0.029 96.517-12.811 12.795-30.183 19.98-48.294 19.974zM506.814 960.053c-130.77-1.396-259.819-52.679-356.979-149.868-163.637-163.686-197.065-417.724-81.367-618.18s352.45-298.568 576.017-238.646c223.567 59.923 379.516 263.254 379.516 494.7 0 37.691-30.573 68.245-68.287 68.246s-68.29-30.553-68.29-68.246c0-170.384-113.865-318.788-278.318-362.867s-337.178 27.471-422.334 175.010c-85.156 147.539-60.734 333.059 59.68 453.509s305.75 144.852 453.208 59.691c32.655-18.858 74.423-7.689 93.292 24.946 18.868 32.633 7.694 74.374-24.958 93.232-81.425 47.025-171.707 69.426-261.181 68.471z" />
<glyph unicode="&#xe90a;" glyph-name="oi-circle-arrow_left" d="M736 480h-338.752l131.904 131.84c12.48 12.48 12.48 32.64 0 45.44-12.512 12.48-32.768 12.48-45.28 0l-181.024-181.12c-7.648-7.68-10.048-18.24-8.288-28.16-1.76-9.92 0.64-20.48 8.288-28.16l181.024-181.12c12.512-12.48 32.768-12.48 45.28 0 12.48 12.48 12.48 32.96 0 45.44l-131.904 131.84h338.752c17.664 0 32 14.4 32 32s-14.336 32-32 32v0zM512 0c-247.424 0-448 200.64-448 448s200.576 448 448 448c247.424 0 448-200.64 448-448s-200.576-448-448-448v0zM512 960c-282.752 0-512-229.12-512-512s229.248-512 512-512c282.752 0 512 229.12 512 512s-229.248 512-512 512v0z" />
<glyph unicode="&#xe90b;" glyph-name="oi-circle-arrow_right" d="M512 0c-247.424 0-448 200.64-448 448s200.576 448 448 448c247.424 0 448-200.64 448-448s-200.576-448-448-448v0zM512 960c-282.784 0-512-229.12-512-512s229.216-512 512-512c282.784 0 512 229.12 512 512s-229.216 512-512 512v0zM721.12 476.16l-180.992 181.12c-12.512 12.48-32.768 12.48-45.248 0-12.512-12.8-12.512-32.96 0-45.44l131.872-131.84h-338.752c-17.696 0-32-14.4-32-32s14.304-32 32-32h338.752l-131.872-131.84c-12.512-12.48-12.512-32.96 0-45.44 12.48-12.48 32.736-12.48 45.248 0l180.992 181.12c7.68 7.68 10.080 18.24 8.32 28.16 1.76 9.92-0.64 20.48-8.32 28.16v0z" />
<glyph unicode="&#xe90c;" glyph-name="oi-circle-user" d="M352 576c0 88.366 71.634 160 160 160s160-71.634 160-160c0-88.367-71.633-160-160-160s-160 71.633-160 160zM512 672c-53.018 0-96-42.981-96-96s42.982-96 96-96 96 42.982 96 96c0 53.019-42.982 96-96 96zM53.333 448c0 253.315 205.352 458.667 458.667 458.667s458.667-205.352 458.667-458.667c0-253.316-205.35-458.667-458.667-458.667-253.315 0-458.667 205.35-458.667 458.667zM512 842.667c-217.968 0-394.667-176.698-394.667-394.667 0-108.612 43.873-206.976 114.863-278.336 7.697 41.519 22.82 80.666 53.174 112.145 45.404 47.087 118.007 70.191 226.63 70.191 108.617 0 181.222-23.104 226.624-70.191 30.357-31.479 45.478-70.63 53.175-112.149 70.993 71.36 114.867 169.728 114.867 278.34 0 217.968-176.7 394.667-394.667 394.667zM733.598 121.37c-4.348 51.708-15.578 89.604-41.041 116.015-27.712 28.736-79.057 50.615-180.557 50.615-101.504 0-152.849-21.879-180.559-50.615-25.467-26.411-36.695-64.303-41.042-116.011 63.173-42.944 139.455-68.041 221.601-68.041 82.142 0 158.426 25.097 221.598 68.036z" />
<glyph unicode="&#xe90d;" glyph-name="oi-round_alt_arrow_down" d="M512 842.667c-217.968 0-394.667-176.698-394.667-394.667 0-217.967 176.698-394.667 394.667-394.667 217.967 0 394.667 176.7 394.667 394.667 0 217.968-176.7 394.667-394.667 394.667zM53.333 448c0 253.315 205.352 458.667 458.667 458.667s458.667-205.352 458.667-458.667c0-253.316-205.35-458.667-458.667-458.667-253.315 0-458.667 205.35-458.667 458.667zM361.373 534.627c12.497 12.497 32.758 12.497 45.255 0l105.373-105.371 105.374 105.371c12.497 12.497 32.755 12.497 45.252 0s12.497-32.756 0-45.254l-128-128c-12.497-12.497-32.755-12.497-45.252 0l-128.001 128c-12.497 12.497-12.497 32.755 0 45.254z" />
<glyph unicode="&#xe90e;" glyph-name="oi-round_arrow_left_down" d="M512 842.667c-217.968 0-394.667-176.698-394.667-394.667 0-217.967 176.698-394.667 394.667-394.667 217.967 0 394.667 176.7 394.667 394.667 0 217.968-176.7 394.667-394.667 394.667zM53.333 448c0 253.315 205.352 458.667 458.667 458.667s458.667-205.352 458.667-458.667c0-253.316-205.35-458.667-458.667-458.667-253.315 0-458.667 205.35-458.667 458.667zM662.626 598.627c12.497-12.497 12.497-32.758 0-45.255l-201.37-201.373h114.743c17.673 0 32-14.327 32-32s-14.327-32-32-32h-192c-17.673 0-32 14.327-32 32v192c0 17.673 14.327 32 32 32s32-14.327 32-32v-114.743l201.374 201.371c12.497 12.497 32.755 12.497 45.252 0z" />
<glyph unicode="&#xe90f;" glyph-name="oi-round_arrow_left_up" d="M512 842.667c-217.968 0-394.667-176.698-394.667-394.667 0-217.967 176.698-394.667 394.667-394.667 217.967 0 394.667 176.7 394.667 394.667 0 217.968-176.7 394.667-394.667 394.667zM53.333 448c0 253.315 205.352 458.667 458.667 458.667s458.667-205.352 458.667-458.667c0-253.316-205.35-458.667-458.667-458.667-253.315 0-458.667 205.35-458.667 458.667zM352 576c0 17.673 14.327 32 32 32h192c17.673 0 32-14.327 32-32s-14.327-32-32-32h-114.743l201.37-201.374c12.497-12.497 12.497-32.755 0-45.252s-32.755-12.497-45.252 0l-201.374 201.37v-114.743c0-17.673-14.327-32-32-32s-32 14.327-32 32v192z" />
<glyph unicode="&#xe910;" glyph-name="oi-round_arrow_right" d="M512 842.667c-217.968 0-394.667-176.698-394.667-394.667 0-217.967 176.698-394.667 394.667-394.667 217.967 0 394.667 176.7 394.667 394.667 0 217.968-176.7 394.667-394.667 394.667zM53.333 448c0 253.315 205.352 458.667 458.667 458.667s458.667-205.352 458.667-458.667c0-253.316-205.35-458.667-458.667-458.667-253.315 0-458.667 205.35-458.667 458.667zM532.041 598.627c12.497 12.497 32.755 12.497 45.252 0l128-128.001c12.497-12.497 12.497-32.755 0-45.252l-128-128c-12.497-12.497-32.755-12.497-45.252 0s-12.497 32.755 0 45.252l73.37 73.374h-264.077c-17.673 0-32 14.327-32 32s14.327 32 32 32h264.077l-73.37 73.373c-12.497 12.497-12.497 32.758 0 45.255z" />
<glyph unicode="&#xe911;" glyph-name="oi-round_arrow_right_down" d="M512 842.667c-217.968 0-394.667-176.698-394.667-394.667 0-217.967 176.698-394.667 394.667-394.667 217.967 0 394.667 176.7 394.667 394.667 0 217.968-176.7 394.667-394.667 394.667zM53.333 448c0 253.315 205.352 458.667 458.667 458.667s458.667-205.352 458.667-458.667c0-253.316-205.35-458.667-458.667-458.667-253.315 0-458.667 205.35-458.667 458.667zM361.373 598.627c12.497 12.497 32.758 12.497 45.255 0l201.373-201.371v114.743c0 17.673 14.327 32 32 32s32-14.327 32-32v-192c0-17.673-14.327-32-32-32h-192c-17.673 0-32 14.327-32 32s14.327 32 32 32h114.743l-201.371 201.373c-12.497 12.497-12.497 32.758 0 45.255z" />
<glyph unicode="&#xe912;" glyph-name="oi-round_arrow_right_up" d="M512 842.667c-217.968 0-394.667-176.698-394.667-394.667 0-217.967 176.698-394.667 394.667-394.667 217.967 0 394.667 176.7 394.667 394.667 0 217.968-176.7 394.667-394.667 394.667zM53.333 448c0 253.315 205.352 458.667 458.667 458.667s458.667-205.352 458.667-458.667c0-253.316-205.35-458.667-458.667-458.667-253.315 0-458.667 205.35-458.667 458.667zM416 576c0 17.673 14.327 32 32 32h192c17.673 0 32-14.327 32-32v-192c0-17.673-14.327-32-32-32s-32 14.327-32 32v114.743l-201.373-201.37c-12.497-12.497-32.758-12.497-45.255 0s-12.497 32.755 0 45.252l201.371 201.374h-114.743c-17.673 0-32 14.327-32 32z" />
<glyph unicode="&#xe913;" glyph-name="oi-rounded-add" d="M469.333 618.667c0 23.564 19.102 42.667 42.667 42.667s42.667-19.103 42.667-42.667v-128h128c23.565 0 42.667-19.102 42.667-42.667s-19.102-42.667-42.667-42.667h-128v-128c0-23.565-19.102-42.667-42.667-42.667s-42.667 19.102-42.667 42.667v128h-128c-23.564 0-42.667 19.102-42.667 42.667s19.103 42.667 42.667 42.667h128v128zM981.333 448c0-259.204-210.129-469.333-469.333-469.333-259.206 0-469.333 210.129-469.333 469.333 0 259.206 210.128 469.333 469.333 469.333s469.333-210.128 469.333-469.333zM128.291 448c0-211.917 171.792-383.71 383.709-383.71s383.71 171.793 383.71 383.71c0 211.916-171.793 383.709-383.71 383.709s-383.709-171.792-383.709-383.709z" />
<glyph unicode="&#xe914;" glyph-name="oi-rounded-chart-1" d="M543.936 481.856c0 0 3.072 383.552 0 383.552 220.672 0 383.552-162.88 383.552-383.552 0-1.216-383.552 0-383.552 0zM895.552 403.136c0-229.472-186.048-415.52-415.52-415.52-229.504 0-415.52 186.048-415.52 415.52 0 229.504 186.016 415.52 415.52 415.52 10.784 0 21.376-0.768 31.968-1.6v-367.168h381.056c1.6-14.72 2.496-31.616 2.496-46.752zM861.6 415.936h-381.568v370.752c-211.84 0-383.552-171.744-383.552-383.584s171.712-383.52 383.552-383.52 383.552 171.68 383.552 383.52c0 41.28-1.984 12.832-1.984 12.832z" />
<glyph unicode="&#xe915;" glyph-name="oi-rounded-dashboard-1" d="M248.896 825.92c64.919 43.91 144.954 70.096 231.104 70.096 229.76 0 416.016-186.257 416.016-416.016 0-143.609-72.766-270.223-183.44-344.982l-1.473-0.938c-64.913-43.896-144.935-70.073-231.072-70.073-229.764 0-416.025 186.261-416.025 416.025 0 143.628 72.784 270.256 183.479 345.014l1.474 0.938zM284.416 187.328c54.935-37.164 122.664-59.328 195.569-59.328 0.005 0 0.011 0 0.016 0h-0.001c194.316 0.218 351.782 157.684 352 351.979v0.021c-0.006 194.4-157.599 351.99-352 351.99-194.404 0-352-157.596-352-352 0-121.493 61.551-228.61 155.171-291.869l1.245-0.793zM658.816 704l45.184-45.248-137.6-137.6c6.057-12.291 9.599-26.756 9.599-42.049 0-53.514-43.382-96.896-96.896-96.896s-96.896 43.382-96.896 96.896c0 53.514 43.382 96.896 96.896 96.896 15.293 0 29.758-3.543 42.619-9.852l-0.571 0.253 137.6 137.6zM462.144 453.376c4.998-3.381 11.159-5.398 17.792-5.398 17.685 0 32.022 14.337 32.022 32.022 0 11.052-5.6 20.797-14.116 26.552l-0.113 0.072c-4.998 3.381-11.159 5.398-17.792 5.398-17.685 0-32.022-14.337-32.022-32.022 0-11.052 5.6-20.797 14.116-26.552l0.113-0.072zM736.448 610.112l-48.832-48.832c10.624-25.792 16.192-53.376 16.32-81.28-0.195-42.055-12.073-81.296-32.551-114.694l0.551 0.966 47.040-47.040c30.703 44.951 49.027 100.479 49.027 160.287 0 47.676-11.644 92.632-32.244 132.18l0.752-1.587h-0.064zM558.912 688.512c-23.347 9.627-50.441 15.299-78.837 15.488h-0.075c-123.712 0-224-100.288-224-224v0c0.184-42.056 12.064-81.299 32.55-114.693l-0.55 0.965-46.976-47.040c-30.563 45.029-48.795 100.58-48.795 160.39 0 159.058 128.942 288 288 288 46.546 0 90.512-11.042 129.424-30.649l-1.652 0.755-49.088-49.216z" />
<glyph unicode="&#xe916;" glyph-name="oi-round-user" d="M685.239 178.901c-30.95 64.555-96.926 109.099-173.239 109.099-76.309 0-142.285-44.535-173.239-109.099 49.93-32.209 109.401-50.901 173.239-50.901s123.307 18.692 173.239 50.901zM736.192 219.665c59.132 58.061 95.808 138.914 95.808 228.335 0 176.731-143.27 320-320 320s-320-143.269-320-320c0-89.421 36.676-170.27 95.806-228.335 43.6 78.878 127.624 132.335 224.194 132.335 96.563 0 180.591-53.449 224.192-132.335zM896 448c0-212.079-171.921-384-384-384-212.077 0-384 171.921-384 384 0 212.077 171.923 384 384 384 212.079 0 384-171.923 384-384zM512 448c-53.018 0-96 42.982-96 96s42.982 96 96 96 96-42.981 96-96c0-53.018-42.982-96-96-96zM512 384c88.367 0 160 71.633 160 160s-71.633 160-160 160c-88.366 0-160-71.634-160-160 0-88.367 71.634-160 160-160z" />
<glyph unicode="&#xe917;" glyph-name="oi-share" d="M838.379 925.885l159.735-209.497c34.513-45.267 34.513-107.509 0-152.776l-159.735-209.496c-49.754-65.254-155.315-30.643-155.315 50.923v104.981c-179.618 6.127-293.928-87.735-352.765-154.987-20.73-23.697-51.794-27.315-75.042-18.867-24.335 8.845-47.489 34.458-40.733 69.756 13.513 70.605 45.758 173.862 124.157 256.455 73.338 77.261 183.437 132.585 344.384 130.68v81.903c0 81.566 105.562 116.179 155.315 50.925zM319.232 464.661c77.022 67.217 187.584 130.296 363.831 130.296h43.153c23.829 0 43.145-19.002 43.145-42.44l-0.009-147.479 159.731 209.498c11.507 15.089 11.507 35.836 0 50.925l-159.731 209.497v-124.341c0-23.438-19.315-42.438-43.145-42.438h-43.145c-194.133 0-281.316-103.728-281.316-103.728-40.137-42.284-65.968-92.538-82.515-139.791zM298.667 917.167h-128c-70.692 0-128-57.307-128-128v-682.666c0-70.694 57.308-128 128-128h682.667c70.694 0 128 57.306 128 128v128c0 23.565-19.102 42.667-42.667 42.667s-42.667-19.102-42.667-42.667v-128c0-23.565-19.102-42.667-42.667-42.667h-682.667c-23.564 0-42.667 19.102-42.667 42.667v682.666c0 23.564 19.103 42.667 42.667 42.667h128c23.564 0 42.667 19.103 42.667 42.667s-19.103 42.667-42.667 42.667z" />
<glyph unicode="&#xe918;" glyph-name="oi-soft-add_square" d="M544 576c0 17.673-14.327 32-32 32s-32-14.327-32-32v-96h-96c-17.673 0-32-14.327-32-32s14.327-32 32-32h96v-96c0-17.673 14.327-32 32-32s32 14.327 32 32v96h96c17.673 0 32 14.327 32 32s-14.327 32-32 32h-96v96zM514.449 906.667h-4.898c-98.49 0-175.676 0.001-235.899-8.096-61.642-8.288-110.283-25.582-148.462-63.761s-55.473-86.819-63.761-148.462c-8.097-60.223-8.096-137.408-8.096-235.899v-4.898c0-98.492-0.001-175.676 8.096-235.9 8.288-61.641 25.582-110.285 63.761-148.463s86.819-55.471 148.462-63.761c60.223-8.094 137.409-8.094 235.899-8.094h4.898c98.492 0 175.676 0 235.9 8.094 61.641 8.29 110.285 25.583 148.463 63.761s55.471 86.822 63.761 148.463c8.094 60.224 8.094 137.408 8.094 235.9v4.898c0 98.49 0 175.676-8.094 235.899-8.29 61.642-25.583 110.283-63.761 148.462s-86.822 55.473-148.463 63.761c-60.224 8.097-137.408 8.096-235.9 8.096zM170.445 789.555c24.305 24.305 57.189 38.253 111.735 45.586 55.466 7.457 128.349 7.525 229.821 7.525 101.47 0 174.353-0.068 229.82-7.525 54.545-7.334 87.428-21.281 111.735-45.586s38.255-57.189 45.585-111.735c7.458-55.466 7.526-128.349 7.526-229.821 0-101.47-0.068-174.353-7.526-229.82-7.33-54.545-21.278-87.428-45.585-111.735s-57.19-38.255-111.735-45.585c-55.467-7.458-128.35-7.526-229.82-7.526-101.471 0-174.355 0.068-229.821 7.526-54.545 7.33-87.43 21.278-111.735 45.585s-38.253 57.19-45.586 111.735c-7.457 55.467-7.525 128.35-7.525 229.82 0 101.471 0.068 174.355 7.525 229.821 7.334 54.545 21.281 87.43 45.586 111.735z" />
<glyph unicode="&#xe919;" glyph-name="oi-soft-alt_arrow_right" d="M363.175 770.962c13.418 11.502 33.62 9.947 45.122-3.471l256.002-298.666c10.27-11.985 10.27-29.666 0-41.651l-256.002-298.667c-11.502-13.419-31.703-14.972-45.122-3.473-13.418 11.503-14.973 31.706-3.471 45.124l238.15 277.841-238.15 277.841c-11.502 13.419-9.947 33.62 3.471 45.122z" />
<glyph unicode="&#xe91a;" glyph-name="oi-soft-alt_arrow_up" d="M491.174 600.296c11.985 10.272 29.666 10.272 41.651 0l298.667-256.002c13.419-11.499 14.972-31.701 3.473-45.12-11.503-13.419-31.706-14.972-45.124-3.469l-277.841 238.148-277.841-238.148c-13.419-11.503-33.62-9.95-45.122 3.469s-9.947 33.621 3.471 45.12l298.666 256.002z" />
<glyph unicode="&#xe91b;" glyph-name="oi-soft-apps-1" d="M288 853.333c100.148 0 181.333-81.186 181.333-181.333v0-181.333h-181.333c-100.148 0-181.333 81.186-181.333 181.333s81.186 181.333 181.333 181.333v0zM384 576v96c0 53.019-42.981 96-96 96s-96-42.981-96-96c0-53.019 42.981-96 96-96v0h96zM288 405.333h181.333v-181.333c0-100.148-81.186-181.333-181.333-181.333s-181.333 81.186-181.333 181.333c0 100.148 81.186 181.333 181.333 181.333v0zM288 320c-53.019 0-96-42.981-96-96s42.981-96 96-96c53.019 0 96 42.981 96 96v0 96h-96zM736 853.333c100.148 0 181.333-81.186 181.333-181.333s-81.186-181.333-181.333-181.333v0h-181.333v181.333c0 100.148 81.186 181.333 181.333 181.333v0zM736 576c53.019 0 96 42.981 96 96s-42.981 96-96 96c-53.019 0-96-42.981-96-96v0-96h96zM554.667 405.333h181.333c100.148 0 181.333-81.186 181.333-181.333s-81.186-181.333-181.333-181.333c-100.148 0-181.333 81.186-181.333 181.333v0 181.333zM640 320v-96c0-53.019 42.981-96 96-96s96 42.981 96 96c0 53.019-42.981 96-96 96v0h-96z" />
<glyph unicode="&#xe91c;" glyph-name="oi-soft-arrow_left_right" d="M688.465 179.507c16.661-16.661 43.678-16.661 60.339 0l208.529 208.734c33.297 33.331 33.284 87.339-0.026 120.653l-208.657 208.654c-16.661 16.662-43.678 16.662-60.339 0s-16.661-43.677 0-60.34l178.586-178.586c16.666-16.666 16.666-43.678 0-60.339l-178.432-178.436c-16.661-16.661-16.661-43.678 0-60.339zM336.501 717.548c-16.662 16.662-43.677 16.662-60.34 0l-208.531-208.735c-33.297-33.331-33.283-87.339 0.030-120.649l208.655-208.657c16.662-16.661 43.677-16.661 60.34 0s16.663 43.678 0 60.339l-178.588 178.59c-16.662 16.661-16.662 43.678 0 60.339l178.433 178.432c16.663 16.663 16.663 43.677 0 60.34z" />
<glyph unicode="&#xe91d;" glyph-name="oi-soft-arrow_left_right_in" d="M200.991 717.545c-16.663 16.662-43.677 16.662-60.34 0s-16.662-43.677 0-60.34l178.434-178.434c16.662-16.661 16.663-43.678 0-60.339l-178.588-178.59c-16.662-16.661-16.662-43.678 0-60.339s43.677-16.661 60.34 0l208.655 208.657c33.311 33.314 33.328 87.322 0.029 120.649l-208.531 208.736zM823.979 179.503c16.661-16.661 43.678-16.661 60.339 0 16.661 16.666 16.661 43.678 0 60.339l-178.432 178.436c-16.666 16.661-16.666 43.678 0 60.339l178.586 178.587c16.661 16.663 16.661 43.677 0 60.34s-43.678 16.662-60.339 0l-208.657-208.655c-33.31-33.314-33.327-87.322-0.030-120.649l208.533-208.738z" />
<glyph unicode="&#xe91e;" glyph-name="oi-soft-arrow_left_squared" d="M832 128c0-35.328-28.672-64-64-64h-640c-35.328 0-64 28.672-64 64v640c0 35.328 28.672 64 64 64h640c35.328 0 64-28.672 64-64v-96h64v96c0 70.688-57.312 128-128 128h-640c-70.688 0-128-57.312-128-128v-640c0-70.688 57.312-128 128-128h640c70.688 0 128 57.312 128 128v96h-64v-96zM992 480h-690.752l167.776 167.776c12.512 12.48 12.512 32.768 0 45.248-12.48 12.512-32.768 12.512-45.28 0l-220.768-220.768c-6.656-6.688-9.504-15.552-9.056-24.256-0.448-8.704 2.4-17.568 9.056-24.256l220.768-220.768c12.512-12.512 32.8-12.512 45.28 0 12.512 12.48 12.512 32.768 0 45.28l-167.776 167.744h690.752c17.696 0 32 14.304 32 32 0 17.664-14.304 32-32 32v0z" />
<glyph unicode="&#xe91f;" glyph-name="oi-soft-arrows_alt" d="M882.773 435.627c-1.707-3.84-3.84-7.253-6.827-10.24l-106.667-106.667c-6.4-6.4-14.507-9.387-22.613-9.387s-16.213 2.987-22.613 9.387c-12.373 12.373-12.373 32.853 0 45.227l52.053 52.053h-232.107v-232.107l52.053 52.053c12.373 12.373 32.853 12.373 45.227 0s12.373-32.853 0-45.227l-106.667-106.667c-2.987-2.987-6.4-5.12-10.24-6.827s-8.107-2.56-12.373-2.56c-4.267 0-8.533 0.853-12.373 2.56s-7.253 3.84-10.24 6.827l-106.667 106.667c-12.373 12.373-12.373 32.853 0 45.227s32.853 12.373 45.227 0l52.053-52.053v232.107h-232.107l52.053-52.053c12.373-12.373 12.373-32.853 0-45.227-6.4-6.4-14.507-9.387-22.613-9.387s-16.213 2.987-22.613 9.387l-106.667 106.667c-2.987 2.987-5.12 6.4-6.827 10.24-3.413 7.68-3.413 16.64 0 24.32 1.707 3.84 3.84 7.253 6.827 10.24l106.667 106.667c12.373 12.373 32.853 12.373 45.227 0s12.373-32.853 0-45.227l-52.053-52.053h232.107v232.533l-52.053-52.053c-12.373-12.373-32.853-12.373-45.227 0s-12.373 32.853 0 45.227l106.667 106.667c2.987 2.987 6.4 5.12 10.24 6.827 7.68 3.413 16.64 3.413 24.32 0 3.84-1.707 7.253-3.84 10.24-6.827l106.667-106.667c12.373-12.373 12.373-32.853 0-45.227-6.4-6.4-14.507-9.387-22.613-9.387s-16.213 2.987-22.613 9.387l-52.053 52.053v-232.107h232.107l-52.053 52.053c-12.373 12.373-12.373 32.853 0 45.227s32.853 12.373 45.227 0l106.667-106.667c2.987-2.987 5.12-6.4 6.827-10.24 3.413-7.68 3.413-16.64 0-24.32l0.427-0.427z" />
<glyph unicode="&#xe920;" glyph-name="oi-soft-arrows_horizontal" d="M592 568.32v80h-448l192 131.2-45.44 64-252.8-168.32c-22.285-14.543-36.999-39.074-37.758-67.088l-0.002-0.112c1.837-26.893 16.295-50.059 37.44-63.805l0.32-0.195 251.52-174.080 45.44 64-192 131.84zM986.24 355.2l-251.52 170.88-45.44-64 192-131.84h-448v-80h449.92l-192-128 45.44-64 251.52 170.88c22.772 14.064 37.72 38.887 37.72 67.2s-14.948 53.135-37.382 67.005l-0.338 0.195z" />
<glyph unicode="&#xe921;" glyph-name="oi-soft-arrows_repeat" d="M104 511.744c0.064 7.488 3.616 184.128 216 184.256h479.392l-91.712-91.712c-7.232-7.232-11.712-17.248-11.712-28.288 0-22.112 17.92-40.032 40.032-40.032 11.072 0 21.056 4.48 28.32 11.744v0l160 160c0.384 0.384 0.512 0.928 0.864 1.312 3.168 3.296 5.76 7.136 7.648 11.392l0.096 0.256v0.096c1.632 4.16 2.56 8.96 2.56 14.016 0 2.272-0.192 4.48-0.544 6.656l0.032-0.224c-0.256 1.888-0.576 3.52-0.992 5.12l0.064-0.288c-1.664 7.136-5.056 13.312-9.76 18.272l-159.968 159.968c-7.232 7.264-17.248 11.744-28.32 11.744-22.112 0-40.032-17.92-40.032-40.032 0-11.040 4.48-21.056 11.712-28.288v0l91.744-91.712h-479.456c-232.768-0.16-295.36-172.608-295.968-263.744 0-0.064 0-0.16 0-0.256 0-22.016 17.76-39.872 39.744-40h0.256c21.984 0 39.84 17.76 40 39.744v0zM960.448 423.904c-21.632-0.864-39.040-17.888-40.416-39.328v-0.128c-0.32-18.848-9.056-184.352-216-184.48h-479.392l91.68 91.68c7.264 7.232 11.744 17.248 11.744 28.32 0 22.112-17.92 40.032-40.032 40.032-11.040 0-21.056-4.48-28.288-11.712v0l-160-160c-0.384-0.384-0.512-0.928-0.864-1.312-3.2-3.296-5.824-7.168-7.712-11.424l-0.096-0.256v-0.096c-1.216-2.976-2.080-6.4-2.336-9.984v-0.128c-0.096-1.056-0.128-2.304-0.128-3.52 0-2.4 0.16-4.768 0.512-7.072l-0.032 0.256c1.248-8.96 5.088-16.864 10.72-23.104l159.968-159.968c7.232-7.232 17.248-11.712 28.288-11.712 22.112 0 40.032 17.92 40.032 40.032 0 11.072-4.48 21.056-11.744 28.32l-91.712 91.68h479.424c232.8 0.192 295.424 172.64 296 263.744 0 0.064 0 0.16 0 0.224 0 21.92-17.664 39.712-39.552 39.936h-0.032z" />
<glyph unicode="&#xe922;" glyph-name="oi-soft-arrows_shuffle" d="M860.32 380.32c-7.232 7.232-17.248 11.712-28.288 11.712-22.112 0-40.032-17.92-40.032-40.032 0-11.040 4.48-21.056 11.712-28.288l59.68-59.68h-213.76l-54.24 78.688c-7.296 10.496-19.328 17.28-32.928 17.28-22.080 0-39.968-17.888-39.968-39.968 0-8.48 2.656-16.352 7.136-22.816l-0.096 0.128 66.144-96c7.328-10.496 19.328-17.312 32.928-17.312h234.752l-59.68-59.68c-7.232-7.232-11.712-17.248-11.712-28.288 0-22.112 17.92-40.032 40.032-40.032 11.040 0 21.056 4.48 28.288 11.712l128 128c7.2 7.264 11.68 17.28 11.68 28.32s-4.448 21.056-11.68 28.32v0zM64 632.032l234.976-0.032 54.208-78.688c7.296-10.528 19.328-17.312 32.928-17.312 22.080 0 40 17.92 40 40 0 8.48-2.624 16.352-7.136 22.816l0.096-0.128-66.112 96c-7.296 10.528-19.328 17.312-32.928 17.312 0 0 0 0 0 0l-256 0.032c-22.080 0-40-17.92-40-40s17.92-40 40-40v0zM863.392 632l-59.712-59.712c-7.232-7.232-11.712-17.248-11.712-28.288 0-22.112 17.92-40.032 40.032-40.032 11.072 0 21.056 4.48 28.32 11.744v0l128 128c0.8 0.8 1.088 1.888 1.824 2.752 5.856 6.080 9.472 14.368 9.472 23.52 0 0.032 0 0.096 0 0.128v0c0.032 0.672 0.384 1.216 0.384 1.888s-0.352 1.216-0.384 1.888c0 0.032 0 0.096 0 0.16 0 9.12-3.616 17.376-9.472 23.456v0c-0.736 0.864-1.024 1.984-1.856 2.816l-128 128c-7.232 7.264-17.248 11.744-28.32 11.744-22.112 0-40.032-17.92-40.032-40.032 0-11.040 4.48-21.056 11.712-28.288v0l59.712-59.712h-223.392c0 0 0 0 0 0-13.376 0-25.216-6.56-32.48-16.64l-0.096-0.128-308.032-431.264h-235.392c-22.080 0-40-17.92-40-40s17.92-40 40-40v0h256c13.376 0 25.216 6.56 32.48 16.64l0.096 0.128 308 431.264z" />
<glyph unicode="&#xe923;" glyph-name="oi-soft-arrows_v" d="M524.373 77.227c3.806 1.617 7.279 3.934 10.24 6.827l170.667 170.667c5.653 6.067 8.73 14.089 8.585 22.379-0.149 8.29-3.507 16.201-9.37 22.063s-13.773 9.22-22.063 9.37c-8.29 0.145-16.311-2.931-22.379-8.585l-116.053-116.053v528.213l116.053-116.053c6.067-5.652 14.089-8.73 22.379-8.584s16.201 3.505 22.063 9.368c5.862 5.863 9.22 13.772 9.37 22.063 0.145 8.29-2.931 16.314-8.585 22.38l-170.667 170.667c-2.961 2.892-6.434 5.207-10.24 6.827-3.908 1.691-8.115 2.563-12.373 2.563s-8.469-0.872-12.373-2.563c-3.81-1.619-7.279-3.934-10.24-6.827l-170.667-170.667c-5.993-6-9.359-14.133-9.359-22.613s3.366-16.614 9.359-22.613c6-5.993 14.133-9.359 22.613-9.359s16.613 3.366 22.613 9.359l116.053 116.053v-528.213l-116.053 116.053c-6 5.99-14.133 9.357-22.613 9.357s-16.614-3.366-22.613-9.357c-5.993-5.999-9.359-14.135-9.359-22.613 0-8.482 3.366-16.614 9.359-22.613l170.667-170.667c2.961-2.893 6.43-5.21 10.24-6.827 3.904-1.69 8.115-2.564 12.373-2.564s8.465 0.875 12.373 2.564z" />
<glyph unicode="&#xe924;" glyph-name="oi-soft-arrows_vertical" d="M391.68 528h-80v-451.2l-131.2 192-64-45.44 170.88-251.52c13.941-21.465 37.107-35.923 63.745-37.746l0.255-0.014c26.893 1.837 50.059 16.295 63.805 37.44l0.195 0.32 170.88 251.52-64 45.44-131.84-192zM604.8 922.24l-170.88-251.52 64-45.44 131.84 192v-449.28h80v448l128-192 64 45.44-162.56 252.8c-14.064 22.772-38.887 37.72-67.2 37.72s-53.135-14.948-67.005-37.382l-0.195-0.338z" />
<glyph unicode="&#xe925;" glyph-name="oi-soft-audio_off" d="M602.364 899.733v-903.546h-102.823l-240.946 240.946h-168.24c-49.317 0-89.543 39.732-90.342 88.863l-0.012 1.492v240.946c0 49.317 39.732 89.542 88.863 90.342l1.492 0.012h168.24l240.946 240.946h102.823zM542.127 839.497h-17.65l-223.296-223.296v-336.481l223.296-223.296h17.65v783.072zM981.414 619.881l42.586-42.586-129.265-129.265 129.265-129.325-42.587-42.587-129.325 129.265-129.265-129.265-42.587 42.587 129.265 129.325-129.265 129.265 42.587 42.587 129.264-129.265 129.326 129.265zM240.946 598.552h-150.591c-16.399 0-29.847-13.225-30.114-29.62l-0.004-0.498v-240.946c0-16.459 13.284-29.848 29.622-30.114l0.496-0.004h150.591v301.181z" />
<glyph unicode="&#xe926;" glyph-name="oi-soft-bill" d="M53.333 874.667c0 17.673 14.327 32 32 32h853.333c17.673 0 32-14.327 32-32s-14.327-32-32-32h-53.333v-406.187c0-2.253 0-4.476 0.004-6.673 0.026-50.637 0.043-85.854-14.306-117.453-14.349-31.595-40.879-54.767-79.031-88.094-1.651-1.442-3.328-2.906-5.026-4.39l-86.955-76.032c-38.784-33.911-70.174-61.359-97.95-80.051-28.915-19.456-57.229-31.787-90.069-31.787s-61.154 12.331-90.068 31.787c-27.779 18.692-59.168 46.14-97.949 80.051l-86.957 76.032c-1.697 1.485-3.373 2.948-5.027 4.39-38.153 33.327-64.682 56.499-79.030 88.094-14.349 31.599-14.331 66.816-14.304 117.453 0.001 2.197 0.002 4.42 0.002 6.673v406.187h-53.333c-17.673 0-32 14.327-32 32zM202.667 842.667v-406.187c0-60.023 0.669-80.252 8.576-97.664 7.908-17.412 22.707-31.241 67.911-70.767l85.333-74.611c40.792-35.669 69.156-60.39 93.178-76.553 23.266-15.659 39.083-20.885 54.336-20.885s31.070 5.227 54.336 20.885c24.021 16.162 52.386 40.883 93.175 76.553l85.338 74.611c45.201 39.526 60.002 53.355 67.908 70.767s8.576 37.641 8.576 97.664v406.187h-618.667zM330.667 618.667c0 17.673 14.327 32 32 32h298.667c17.673 0 32-14.327 32-32s-14.327-32-32-32h-298.667c-17.673 0-32 14.327-32 32zM330.667 405.333c0 17.673 14.327 32 32 32h298.667c17.673 0 32-14.327 32-32s-14.327-32-32-32h-298.667c-17.673 0-32 14.327-32 32z" />
<glyph unicode="&#xe927;" glyph-name="oi-soft-bookmark-1" d="M1023.896 114.223v667.762c0 98.2-79.814 178.014-178.014 178.014-19.849 0-35.937-16.088-35.937-35.728 0-19.849 16.088-35.937 35.937-35.937 58.502 0 106.349-47.638 106.349-106.349v-667.971c0-58.711-47.638-106.349-106.349-106.349h-667.762c-58.711 0-106.349 47.638-106.349 106.349v667.971c0 58.711 47.638 106.349 106.349 106.349h1.045c19.849 0 35.31 16.088 35.31 35.937s-16.506 35.728-36.355 35.728c-98.2 0-178.014-79.814-178.014-178.014v-667.971c0-98.2 79.814-178.014 178.014-178.014h667.971c97.991 0.209 177.805 80.023 177.805 178.223zM346.731 129.685c14.417 0 28.415 5.432 39.489 15.252l124.109 111.781 124.109-111.781c10.865-9.82 24.863-15.252 39.489-15.252 32.594 0 59.129 26.535 59.129 59.129v735.458c0 19.849-16.088 35.728-35.728 35.728h-373.997c-19.849 0-35.937-16.088-35.937-35.728v-735.458c0-32.594 26.744-59.129 59.338-59.129zM359.058 888.335h301.914v-671.314l-111.363 100.499c-10.865 9.82-24.863 15.252-39.489 15.252s-28.624-5.432-39.489-15.252l-111.363-100.499v671.314h-0.209z" />
<glyph unicode="&#xe928;" glyph-name="oi-soft-broken_heart" d="M239.973 771.238c64.604 29.53 150.067 23.971 232.983-52.456l-53.576-107.132c-7.044-14.084-2.793-31.2 10.022-40.352l120.883-86.344-105.246-122.79c-10.884-12.698-10.155-31.629 1.668-43.452l72.521-72.525-31.036-124.139c-7.386 2.688-15.424 6.566-24.252 11.725-19.298 11.277-39.318 26.803-61.762 44.497-12.412 9.783-25.046 19.524-37.757 29.325-53.516 41.259-108.391 83.563-153.721 134.605-55 61.935-93.367 134.199-93.367 227.955 0 91.77 51.856 168.729 122.639 201.084zM538.394 706.546c86.805 88.006 177.737 95.727 245.632 64.692 70.784-32.355 122.641-109.314 122.641-201.084 0-93.755-38.366-166.020-93.367-227.955-45.329-51.042-100.203-93.346-153.719-134.605-12.71-9.801-25.344-19.541-37.756-29.325-22.447-17.694-42.466-33.22-61.764-44.497-1.169-0.683-2.321-1.344-3.46-1.98l29.111 116.45c2.726 10.906-0.469 22.438-8.418 30.387l-64.38 64.38 108.715 126.835c5.845 6.818 8.555 15.774 7.471 24.687s-5.858 16.96-13.167 22.178l-127.078 90.772 49.54 99.064zM512 769.761c-98.647 88.259-209.111 100.606-298.634 59.685-94.551-43.22-160.032-143.576-160.032-259.291 0-113.728 47.381-200.49 109.513-270.451 49.756-56.026 110.656-102.921 164.442-144.333 12.192-9.387 24.019-18.496 35.268-27.362 21.855-17.229 45.318-35.601 69.094-49.493 23.77-13.888 50.893-25.178 80.35-25.178s56.58 11.29 80.35 25.178c23.778 13.892 47.236 32.265 69.094 49.493 11.247 8.866 23.074 17.975 35.268 27.362 53.786 41.412 114.684 88.307 164.442 144.333 62.131 69.961 109.513 156.723 109.513 270.451 0 115.715-65.481 216.072-160.034 259.291-89.523 40.921-199.983 28.575-298.633-59.685z" />
<glyph unicode="&#xe929;" glyph-name="oi-soft-call_receive" d="M740.459 11.422c-86.191 21.594-262.639 82.475-422.602 242.436s-220.841 336.41-242.436 422.601c-12.41 49.532 9.937 97.329 47.83 124.396l99.339 70.956c58.124 41.517 138.982 27.429 179.639-31.299l62.539-90.336c26.547-38.346 17.391-90.903-20.561-118.011l-49.867-35.62c7.547-28.869 31.021-88.154 104.536-161.669s132.8-96.986 161.668-104.533l35.618 49.869c27.11 37.948 79.667 47.108 118.012 20.561l90.338-62.541c58.726-40.661 72.815-121.515 31.296-179.639l-70.955-99.341c-27.068-37.892-74.863-60.241-124.395-47.829zM378.196 314.197c145.469-145.468 305.998-200.708 382.999-220.002 11.255-2.816 24.862 1.557 34.219 14.656l70.959 99.341c13.837 19.371 9.143 46.323-10.436 59.878l-90.334 62.541-38.225-53.517c-15.62-21.871-44.51-39.023-78.148-31.765-41.984 9.058-119.595 38.11-210.692 129.207s-120.15 168.708-129.209 210.692c-7.258 33.638 9.896 62.528 31.766 78.149l53.515 38.225-62.54 90.336c-13.553 19.576-40.505 24.272-59.88 10.433l-99.339-70.956c-13.1-9.357-17.474-22.964-14.654-34.218 19.293-77.003 74.534-237.533 220-383z" />
<glyph unicode="&#xe92a;" glyph-name="oi-soft-chat_square-1" d="M558.366 47.458v0zM581.495 86.537v0zM442.505 86.537v0zM465.634 47.458v0zM53.333 512c0-17.673 14.327-32 32-32s32 14.327 32 32h-64zM131.136 293.274c-6.763 16.329-25.482 24.081-41.81 17.318s-24.081-25.481-17.318-41.809l59.128 24.491zM332.355 149.696v0zM217.027 165.572v0zM922.428 281.028v0zM691.644 149.696v0zM806.972 165.572v0zM836.8 843.23v0zM907.23 772.8v0zM187.2 843.23v0zM116.77 772.8v0zM401.186 140.382v0zM585.903 31.159l23.13 39.074-55.078 32.602-23.13-39.078 55.078-32.597zM414.967 70.234l23.13-39.074 55.074 32.597-23.13 39.078-55.075-32.602zM530.825 63.757c-8.222-13.892-29.427-13.892-37.653 0l-55.074-32.597c33.007-55.765 114.799-55.765 147.806 0l-55.078 32.597zM448 842.667h128v64h-128v-64zM906.667 512v-42.667h64v42.667h-64zM332.907 181.692c-53.565 0.926-81.633 4.331-103.633 13.444l-24.492-59.127c34.345-14.225 73.464-17.382 127.023-18.304l1.103 63.987zM72.008 268.783c24.9-60.113 72.66-107.874 132.774-132.774l24.492 59.127c-44.432 18.406-79.733 53.705-98.137 98.138l-59.128-24.491zM906.667 469.333c0-50.138-0.017-86.14-1.954-114.547-1.92-28.122-5.615-46.46-11.849-61.513l59.127-24.491c10.005 24.149 14.43 50.266 16.572 81.647 2.121 31.091 2.103 69.641 2.103 118.903h-64zM692.194 117.705c53.559 0.922 92.681 4.079 127.023 18.304l-24.491 59.127c-21.999-9.114-50.069-12.518-103.633-13.444l1.101-63.987zM892.864 293.274c-18.406-44.433-53.705-79.731-98.138-98.138l24.491-59.127c60.113 24.9 107.874 72.661 132.774 132.774l-59.127 24.491zM576 842.667c70.451 0 121.045-0.034 160.508-3.786 38.989-3.707 63.795-10.816 83.571-22.935l33.442 54.569c-31.526 19.317-67.285 27.927-110.955 32.079-43.196 4.107-97.353 4.073-166.566 4.073v-64zM970.667 512c0 69.213 0.034 123.371-4.075 166.566-4.151 43.671-12.762 79.431-32.077 110.954l-54.571-33.44c12.122-19.777 19.23-44.585 22.938-83.572 3.75-39.463 3.785-90.055 3.785-160.508h64zM820.079 815.945c24.401-14.952 44.915-35.466 59.866-59.866l54.571 33.44c-20.228 33.011-47.983 60.765-80.994 80.995l-33.442-54.569zM448 906.667c-69.213 0-123.371 0.034-166.566-4.073-43.671-4.152-79.431-12.762-110.954-32.079l33.44-54.569c19.777 12.119 44.585 19.229 83.572 22.935 39.463 3.752 90.055 3.786 160.508 3.786v64zM117.333 512c0 70.453 0.034 121.045 3.786 160.508 3.707 38.987 10.816 63.794 22.935 83.572l-54.569 33.44c-19.317-31.523-27.927-67.282-32.079-110.954-4.107-43.195-4.073-97.353-4.073-166.566h64zM170.48 870.514c-33.011-20.229-60.765-47.984-80.995-80.995l54.569-33.44c14.952 24.399 35.466 44.913 59.866 59.866l-33.44 54.569zM470.042 102.835c-8.661 14.635-16.265 27.55-23.659 37.696-7.791 10.684-16.721 20.305-29.109 27.511l-32.177-55.326c2.023-1.173 4.779-3.319 9.563-9.882 5.178-7.108 11.029-16.926 20.307-32.602l55.075 32.602zM331.804 117.705c18.735-0.324 30.601-0.563 39.647-1.562 8.453-0.939 11.729-2.308 13.647-3.426l32.177 55.326c-12.491 7.266-25.489 10.24-38.779 11.712-12.697 1.404-28.041 1.634-45.588 1.937l-1.103-63.987zM609.033 70.234c9.276 15.676 15.125 25.493 20.305 32.602 4.783 6.562 7.539 8.708 9.562 9.882l-32.175 55.326c-12.386-7.206-21.321-16.828-29.107-27.511-7.394-10.146-14.997-23.061-23.663-37.696l55.078-32.602zM691.093 181.692c-17.549-0.303-32.892-0.533-45.589-1.937-13.291-1.472-26.287-4.446-38.78-11.712l32.175-55.326c1.92 1.118 5.197 2.487 13.649 3.426 9.045 0.998 20.911 1.237 39.646 1.562l-1.101 63.987z" />
<glyph unicode="&#xe92b;" glyph-name="oi-soft-email" d="M1021.356 735.45c-4.616 23.252-14.926 44.53-29.324 62.108-3.036 3.83-6.208 7.26-9.646 10.69-25.51 25.636-61.314 41.628-100.428 41.628h-739.916c-39.114 0-74.79-15.992-100.42-41.628-3.43-3.43-6.602-6.86-9.646-10.69-14.406-17.576-24.716-38.856-29.204-62.108-1.844-8.974-2.772-18.248-2.772-27.624v-519.666c0-19.936 4.228-39.1 11.768-56.406 6.994-16.52 17.306-31.468 29.852-44.002 3.18-3.172 6.338-6.088 9.784-8.988 24.572-20.35 56.29-32.64 90.638-32.64h739.916c34.36 0 66.216 12.29 90.646 32.768 3.436 2.772 6.61 5.688 9.782 8.86 12.54 12.534 22.85 27.482 29.988 44.002v0.128c7.538 17.306 11.624 36.342 11.624 56.276v519.668c0.002 9.376-0.912 18.65-2.642 27.624zM93.018 756.858c12.69 12.676 29.732 20.35 49.024 20.35h739.916c19.292 0 36.484-7.674 49.024-20.35 2.244-2.258 4.358-4.774 6.224-7.274l-387.814-337.99c-10.696-9.374-23.908-14.004-37.392-14.004-13.348 0-26.552 4.63-37.39 14.004l-387.666 338.134c1.716 2.5 3.83 4.872 6.074 7.13zM72.668 188.16v486.37l280.648-244.83-280.506-244.57c-0.142 0.928-0.142 1.972-0.142 3.030zM881.958 118.806h-739.916c-12.562 0-24.316 3.302-34.348 9.104l295.956 257.918 27.63-24.036c23.122-20.092 52.056-30.268 80.72-30.268 28.812 0 57.744 10.176 80.864 30.268l27.616 24.036 295.84-257.918c-10.046-5.802-21.8-9.104-34.362-9.104zM951.332 188.16c0-1.058 0-2.102-0.136-3.030l-280.504 244.428 280.64 244.842v-486.24z" />
<glyph unicode="&#xe92c;" glyph-name="oi-soft-error-1" d="M520.741 796.199c-0.863 1.399-2.007 2.543-3.362 3.381l-0.044 0.025c-4.827 2.946-11.129 1.421-14.075-3.406l-423.002-693.073c-0.941-1.519-1.499-3.361-1.499-5.333 0-0.001 0-0.001 0-0.002v0c0-5.655 4.585-10.24 10.24-10.24h846.004c1.882 0 3.728 0.519 5.335 1.499 4.827 2.946 6.352 9.248 3.406 14.075l-423.002 693.073zM564.444 822.873l423.002-693.073c17.678-28.964 8.528-66.774-20.436-84.452-9.115-5.648-20.171-8.996-32.008-8.996h-846.004c-33.932 0-61.44 27.508-61.44 61.44 0 11.837 3.348 22.893 9.148 32.272l-0.152-0.264 423.002 693.073c17.678 28.964 55.488 38.113 84.452 20.436 8.391-5.178 15.258-12.045 20.284-20.172l0.152-0.264zM512 181.76c22.622 0 40.96 18.338 40.96 40.96s-18.338 40.96-40.96 40.96-40.96-18.338-40.96-40.96 18.338-40.96 40.96-40.96zM512 622.080c-22.622 0-40.96-18.338-40.96-40.96v-225.28c0-22.622 18.338-40.96 40.96-40.96s40.96 18.338 40.96 40.96v225.28c0 22.622-18.338 40.96-40.96 40.96z" />
<glyph unicode="&#xe92d;" glyph-name="oi-soft-exit_full_screen" d="M823.168 819.499c7.769 8.036 18.647 13.026 30.69 13.026 23.564 0 42.667-19.103 42.667-42.667 0-12.043-4.989-22.92-13.014-30.678l-125.623-125.623c-22.203-22.205-46.841-41.974-73.48-58.872l-1.741-1.032v-12.416l16.64 3.84c28.819 6.942 61.907 10.923 95.924 10.923 0.027 0 0.053 0 0.080 0h36.732c23.564 0 42.667-19.103 42.667-42.667s-19.103-42.667-42.667-42.667v0l-213.333 0.128c-35.346 0-64 28.654-64 64v0 213.205c0 23.564 19.103 42.667 42.667 42.667s42.667-19.103 42.667-42.667v0-36.736c0-32.299-3.669-64.469-10.923-95.957l-3.84-16.64h12.587c17.995 28.585 37.865 53.393 60.203 75.734l125.141 125.098zM341.333 334.805v-12.459c-27.221-17.067-52.48-37.12-75.221-59.904l-125.611-125.611c-8.036-7.769-13.026-18.647-13.026-30.69 0-23.564 19.103-42.667 42.667-42.667 12.043 0 22.92 4.989 30.678 13.014l125.153 125.111c22.319 22.341 42.176 47.149 59.124 73.977l1.036 1.756h12.629l-3.84-16.64c-6.942-28.819-10.923-61.907-10.923-95.924 0-0.027 0-0.053 0-0.080v0.004-36.736c0-23.564 19.103-42.667 42.667-42.667s42.667 19.103 42.667 42.667v0 213.205c0 35.346-28.654 64-64 64v0l-213.333 0.171c-23.564 0-42.667-19.103-42.667-42.667s19.103-42.667 42.667-42.667v0h36.736c32.299 0 64.469 3.669 95.957 10.923l16.64 3.84z" />
<glyph unicode="&#xe92e;" glyph-name="oi-soft-folder-1" d="M406.16 832c23.329 0 45.523-9.545 61.533-26.21l5.101-5.816 59.712-74.641h320.828c44.987 0 81.842-34.811 85.099-78.965l0.234-6.369v-490.667c0-44.987-34.81-81.842-78.965-85.099l-6.369-0.234h-682.667c-44.986 0-81.842 34.81-85.099 78.965l-0.234 6.369v597.333c0 44.986 34.811 81.842 78.965 85.099l6.369 0.234h235.494zM853.333 490.667h-682.667v-341.333h682.667v341.333zM406.16 746.667h-235.494v-170.667h682.667v64h-320.828c-23.328 0-45.522 9.545-61.532 26.21l-5.101 5.816-59.713 74.641z" />
<glyph unicode="&#xe92f;" glyph-name="oi-soft-fullscreen_exit-1" d="M298.667 576c47.128 0 85.333 38.205 85.333 85.333v170.667c0 23.564-19.103 42.667-42.667 42.667s-42.667-19.103-42.667-42.667v-170.667h-170.667c-23.564 0-42.667-19.103-42.667-42.667s19.103-42.667 42.667-42.667h170.667zM725.333 576c-47.13 0-85.333 38.205-85.333 85.333v170.667c0 23.564 19.102 42.667 42.667 42.667s42.667-19.103 42.667-42.667v-170.667h170.667c23.565 0 42.667-19.103 42.667-42.667s-19.102-42.667-42.667-42.667h-170.667zM725.333 320c-47.13 0-85.333-38.204-85.333-85.333v-170.667c0-23.565 19.102-42.667 42.667-42.667s42.667 19.102 42.667 42.667v170.667h170.667c23.565 0 42.667 19.102 42.667 42.667s-19.102 42.667-42.667 42.667h-170.667zM384 234.667c0 47.13-38.205 85.333-85.333 85.333h-170.667c-23.564 0-42.667-19.102-42.667-42.667s19.103-42.667 42.667-42.667h170.667v-170.667c0-23.565 19.103-42.667 42.667-42.667s42.667 19.102 42.667 42.667v170.667z" />
<glyph unicode="&#xe930;" glyph-name="oi-soft-fullscreen-1" d="M170.667 874.667c-47.128 0-85.333-38.205-85.333-85.333v-170.667c0-23.564 19.103-42.667 42.667-42.667s42.667 19.103 42.667 42.667v170.667h170.667c23.564 0 42.667 19.103 42.667 42.667s-19.103 42.667-42.667 42.667h-170.667zM853.333 874.667c47.13 0 85.333-38.205 85.333-85.333v-170.667c0-23.564-19.102-42.667-42.667-42.667s-42.667 19.103-42.667 42.667v170.667h-170.667c-23.565 0-42.667 19.103-42.667 42.667s19.102 42.667 42.667 42.667h170.667zM853.333 21.333c47.13 0 85.333 38.204 85.333 85.333v170.667c0 23.565-19.102 42.667-42.667 42.667s-42.667-19.102-42.667-42.667v-170.667h-170.667c-23.565 0-42.667-19.102-42.667-42.667s19.102-42.667 42.667-42.667h170.667zM85.333 106.667c0-47.13 38.205-85.333 85.333-85.333h170.667c23.564 0 42.667 19.102 42.667 42.667s-19.103 42.667-42.667 42.667h-170.667v170.667c0 23.565-19.103 42.667-42.667 42.667s-42.667-19.102-42.667-42.667v-170.667z" />
<glyph unicode="&#xe931;" glyph-name="oi-soft-gear-1" d="M426.665 874.667c-23.564 0-42.667-19.103-42.667-42.667v-67.489c-29.664-12.006-57.238-28.051-82.045-47.44l-58.509 33.78c-9.8 5.658-21.446 7.191-32.376 4.263s-20.249-10.080-25.907-19.88l-85.333-147.802c-11.782-20.407-4.79-46.502 15.617-58.285l58.488-33.766c-2.155-15.501-3.267-31.322-3.267-47.381s1.112-31.876 3.267-47.381l-58.487-33.766c-9.8-5.658-16.951-14.976-19.88-25.907s-1.396-22.575 4.262-32.375l85.333-147.802c5.658-9.801 14.977-16.951 25.908-19.883 10.93-2.927 22.576-1.395 32.376 4.262l58.51 33.783c24.806-19.388 52.38-35.435 82.044-47.441v-67.49c0-23.565 19.103-42.667 42.667-42.667h170.668c23.561 0 42.667 19.102 42.667 42.667v67.49c29.662 12.006 57.237 28.053 82.044 47.441l58.509-33.783c9.801-5.658 21.444-7.189 32.375-4.262 10.931 2.931 20.25 10.082 25.907 19.878l85.333 147.802c5.658 9.801 7.194 21.449 4.262 32.38-2.927 10.927-10.078 20.25-19.878 25.907l-58.487 33.766c2.155 15.501 3.268 31.322 3.268 47.381s-1.114 31.881-3.268 47.381l58.487 33.766c20.407 11.784 27.401 37.879 15.616 58.286l-85.333 147.802c-5.658 9.8-14.976 16.951-25.907 19.88s-22.575 1.396-32.375-4.262l-58.509-33.781c-24.806 19.389-52.382 35.433-82.044 47.439v67.489c0 23.564-19.106 42.667-42.667 42.667h-170.668zM469.333 734.299v55.034h85.333v-55.034c0-18.877 12.403-35.509 30.494-40.894 38.874-11.569 73.933-32.157 102.724-59.391 13.709-12.969 34.308-15.39 50.654-5.954l47.731 27.558 42.667-73.901-47.671-27.523c-16.333-9.428-24.538-28.46-20.181-46.807 4.514-19.017 6.916-38.895 6.916-59.388s-2.402-40.371-6.916-59.388c-4.356-18.347 3.849-37.376 20.181-46.805l47.671-27.524-42.667-73.899-47.735 27.558c-16.341 9.434-36.941 7.014-50.654-5.956-28.787-27.234-63.846-47.821-102.72-59.388-18.091-5.385-30.494-22.020-30.494-40.896v-55.036h-85.333v55.036c0 18.876-12.407 35.511-30.498 40.896-38.874 11.567-73.93 32.154-102.721 59.388-13.71 12.971-34.31 15.39-50.653 5.956l-47.732-27.558-42.667 73.899 47.671 27.524c16.331 9.429 24.535 28.459 20.18 46.805-4.514 19.017-6.914 38.895-6.914 59.388s2.399 40.371 6.914 59.388c4.355 18.347-3.849 37.377-20.18 46.806l-47.671 27.523 42.667 73.901 47.731-27.558c16.343-9.436 36.944-7.014 50.654 5.955 28.791 27.235 63.848 47.822 102.722 59.392 18.091 5.385 30.498 22.017 30.498 40.894zM426.666 448c0 47.13 38.205 85.333 85.334 85.333s85.333-38.204 85.333-85.333c0-47.13-38.204-85.333-85.333-85.333s-85.334 38.204-85.334 85.333zM512 618.667c-94.257 0-170.668-76.41-170.668-170.667 0-94.255 76.41-170.667 170.668-170.667 94.255 0 170.667 76.412 170.667 170.667 0 94.257-76.412 170.667-170.667 170.667z" />
<glyph unicode="&#xe932;" glyph-name="oi-soft-heart" d="M239.973 771.238c68.766 31.433 161.165 23.109 248.97-68.119 6.033-6.267 14.357-9.809 23.057-9.809s17.024 3.541 23.057 9.809c87.804 91.228 180.203 99.552 248.969 68.119 70.784-32.355 122.641-109.314 122.641-201.084 0-93.755-38.366-166.020-93.367-227.955-45.329-51.042-100.203-93.346-153.719-134.605-12.71-9.801-25.344-19.541-37.756-29.325-22.447-17.694-42.466-33.22-61.764-44.497-19.307-11.285-34.85-16.435-48.060-16.435s-28.753 5.15-48.060 16.435c-19.298 11.277-39.318 26.803-61.762 44.497-12.412 9.783-25.046 19.524-37.757 29.325-53.516 41.259-108.391 83.563-153.721 134.605-55 61.935-93.367 134.199-93.367 227.955 0 91.77 51.856 168.729 122.639 201.084zM512 769.761c-98.647 88.259-209.111 100.606-298.634 59.685-94.551-43.22-160.032-143.576-160.032-259.291 0-113.728 47.381-200.49 109.513-270.451 49.756-56.026 110.656-102.921 164.442-144.333 12.192-9.387 24.019-18.496 35.268-27.362 21.855-17.229 45.317-35.601 69.094-49.493 23.77-13.888 50.893-25.178 80.35-25.178s56.58 11.29 80.35 25.178c23.778 13.892 47.236 32.265 69.094 49.493 11.247 8.866 23.074 17.975 35.268 27.362 53.786 41.412 114.684 88.307 164.442 144.333 62.131 69.961 109.513 156.723 109.513 270.451 0 115.715-65.481 216.072-160.034 259.291-89.523 40.921-199.983 28.575-298.633-59.685z" />
<glyph unicode="&#xe933;" glyph-name="oi-soft-key" d="M669.052 731.813c-69.495 0-126.054-56.141-126.054-125.67s56.559-125.669 126.054-125.669c69.495 0 126.054 56.14 126.054 125.669s-56.559 125.67-126.054 125.67zM606.997 606.143c0 33.936 27.661 61.67 62.054 61.67s62.054-27.734 62.054-61.67c0-33.936-27.661-61.67-62.054-61.67s-62.054 27.734-62.054 61.67zM406.612 69.193c14.208 19.81 18.781 39.91 18.442 57.813 16.733-4.924 33.288-5.547 49.147-2.539 32.785 6.221 57.045 26.948 69.914 44.036l0.226 0.299 0.218 0.303c22.409 31.245 22.362 63.245 16.875 86.195-2.688 11.247-6.677 20.493-9.988 26.957-1.673 3.264-3.221 5.914-4.429 7.855-0.32 0.512-0.614 0.981-0.887 1.399-3.785 7.066-8.055 12.621-11.648 16.811l0.384 0.384 19.806 19.725c16.282-7.787 33.946-12.693 49.417-15.893 24.99-5.175 49.442-6.912 64.956-6.912 166.455 0 301.623 134.426 301.623 300.521s-135.168 300.52-301.623 300.52c-166.455 0-301.622-134.424-301.622-300.52 0-39.128 8.906-72.637 17.683-96.237 2.234-6.007 4.477-11.418 6.591-16.166l-309.557-308.292c-10.941-10.897-23.775-29.845-27.654-53.577-4.207-25.737 2.703-54.345 27.654-79.198l37.622-37.466c0.58-0.58 1.182-1.135 1.804-1.664 10.867-9.276 29.119-20.002 51.053-23.245 23.526-3.477 50.754 1.941 73.816 24.909l24.172 24.073c22.737-13.039 46.772-16.009 68.996-11.755 28.824 5.521 52.798 22.775 66.57 41.062l0.224 0.299 0.217 0.303zM431.42 606.147c0 130.503 106.266 236.52 237.623 236.52s237.623-106.017 237.623-236.52c0-130.503-106.266-236.521-237.623-236.521-11.657 0-31.723 1.387-51.985 5.581-21.201 4.39-37.85 10.91-46.716 18.27-12.693 10.534-31.326 9.69-43.017-1.954l-37.623-37.47c-8.606-8.572-16.879-18.287-21.248-29.5-5.525-14.199-3.763-27.861 2.56-39.202 3.75-6.724 9.792-13.146 12.305-15.825l0.845-0.905c2.974-3.281 4.604-5.427 5.794-7.799l1.126-2.249 1.289-1.792 0.29-0.457c0.384-0.623 1.041-1.732 1.822-3.247 1.587-3.102 3.473-7.509 4.702-12.659 2.334-9.749 2.308-21.35-6.413-33.702-6.003-7.821-17.365-16.875-30.502-19.371-10.991-2.082-28.902-0.725-52.812 23.083-12.486 12.437-32.676 12.437-45.162 0l-12.541-12.489c-11.812-11.763-12.605-30.609-1.868-43.319 0.060-0.073 0.224-0.277 0.472-0.606 0.513-0.678 1.356-1.847 2.355-3.418 2.049-3.23 4.458-7.697 6.169-12.809 3.224-9.63 3.731-19.917-4.053-30.976-5.118-6.626-15.503-14.17-27.27-16.422-9.999-1.916-22.802-0.495-37.238 13.879-12.486 12.437-32.676 12.437-45.162 0l-43.892-43.712c-7.035-7.006-13.248-7.834-19.296-6.942-7.158 1.058-14.153 4.868-18.103 7.987l-36.573 36.425c-10.162 10.121-10.568 17.937-9.654 23.526 1.242 7.595 5.964 14.874 9.654 18.551l326.157 324.821c10.53 10.487 12.399 26.871 4.497 39.462l-0.094 0.154c-0.115 0.192-0.337 0.567-0.653 1.114-0.623 1.092-1.609 2.871-2.833 5.274-2.458 4.813-5.854 12.066-9.284 21.286-6.899 18.554-13.67 44.368-13.67 73.931zM349.89 154.62c0.059-0.068 0.118-0.137 0.177-0.209l-0.049 0.060-0.128 0.149z" />
<glyph unicode="&#xe934;" glyph-name="oi-soft-layers-1" d="M531.093 912.829c-12.015 6.006-26.15 6.006-38.165 0l-426.665-213.333c-14.455-7.227-23.586-22.001-23.586-38.162s9.131-30.935 23.586-38.162l426.665-213.332c12.015-6.007 26.15-6.007 38.165 0l426.667 213.332c14.451 7.227 23.582 22.001 23.582 38.162s-9.131 30.935-23.582 38.162l-426.667 213.333zM47.18 253.747c10.538 21.077 36.167 29.619 57.243 19.085l407.585-203.793 407.586 203.793c21.077 10.534 46.707 1.993 57.242-19.085 10.539-21.073 1.997-46.703-19.081-57.242l-426.667-213.333c-12.011-6.007-26.15-6.007-38.161 0l-426.666 213.333c-21.076 10.539-29.619 36.169-19.081 57.242zM104.424 486.165c-21.076 10.534-46.705 1.993-57.243-19.085-10.538-21.073-1.995-46.703 19.081-57.242l426.666-213.333c12.011-6.007 26.15-6.007 38.161 0l426.667 213.333c21.077 10.539 29.619 36.169 19.081 57.242-10.534 21.077-36.164 29.619-57.242 19.085l-407.586-203.793-407.585 203.793z" />
<glyph unicode="&#xe935;" glyph-name="oi-soft-layout-1" d="M213.333 21.333c-70.692 0-128 57.306-128 128v597.333c0 70.692 57.308 128 128 128h597.333c70.694 0 128-57.308 128-128v-597.333c0-70.694-57.306-128-128-128h-597.333zM213.333 789.333c-23.564 0-42.667-19.103-42.667-42.667v-128h682.667v128c0 23.564-19.102 42.667-42.667 42.667h-597.333zM341.333 533.333h-170.667v-384c0-23.565 19.103-42.667 42.667-42.667h128v426.667zM426.667 106.667h384c23.565 0 42.667 19.102 42.667 42.667v384h-426.667v-426.667z" />
<glyph unicode="&#xe936;" glyph-name="oi-soft-like" d="M0 446.968v-390.095c0-53.882 45.824-96.5 102.4-96.5h102.4v585.143h-102.4c-56.576 0-102.4-44.666-102.4-98.548zM1020.365 381.92l-88.986-318.659c-14.643-60.514-71.219-102.888-136.448-102.888h-487.731v584.119l88.013 302.080c10.394 64.219 80.435 107.325 151.398 81.384 42.445-15.555 67.789-57.637 67.789-100.986v-233.716c0-26.917 22.938-47.738 51.2-47.738h218.317c90.061 0 156.672-80.067 136.448-163.596z" />
<glyph unicode="&#xe937;" glyph-name="oi-soft-link" d="M671.083 794.284c61.201 61.435 150.716 62.726 200.273 12.977 49.647-49.842 48.311-139.921-12.928-201.399l-103.415-103.817c-12.471-12.523-12.433-32.785 0.085-45.257 12.523-12.471 32.785-12.433 45.257 0.090l103.415 103.817c81.549 81.865 91.789 212.567 12.928 291.733-78.955 79.26-209.365 68.93-290.957-12.977l-206.832-207.636c-81.548-81.865-91.787-212.569-12.927-291.732 12.472-12.523 32.734-12.561 45.253-0.090 12.523 12.471 12.561 32.734 0.090 45.257-49.649 49.839-48.312 139.921 12.928 201.399l206.831 207.636zM618.031 555.915c-12.471 12.521-32.734 12.56-45.257 0.088-12.518-12.473-12.557-32.735-0.085-45.253 49.647-49.843 48.311-139.921-12.928-201.399l-206.832-207.637c-61.198-61.436-150.716-62.729-200.272-12.979-49.65 49.843-48.312 139.925 12.927 201.404l103.417 103.817c12.473 12.523 12.433 32.781-0.087 45.257-12.521 12.471-32.783 12.433-45.255-0.090l-103.417-103.817c-81.549-81.869-91.787-212.57-12.928-291.738 78.954-79.258 209.366-68.928 290.957 12.979l206.831 207.637c81.549 81.865 91.789 212.565 12.928 291.732z" />
<glyph unicode="&#xe938;" glyph-name="oi-soft-lock_password-1" d="M384 277.333c0-23.565-19.102-42.667-42.667-42.667s-42.667 19.102-42.667 42.667c0 23.565 19.103 42.667 42.667 42.667s42.667-19.102 42.667-42.667zM554.667 277.333c0-23.565-19.102-42.667-42.667-42.667s-42.667 19.102-42.667 42.667c0 23.565 19.102 42.667 42.667 42.667s42.667-19.102 42.667-42.667zM682.667 234.667c23.565 0 42.667 19.102 42.667 42.667s-19.102 42.667-42.667 42.667c-23.565 0-42.667-19.102-42.667-42.667s19.102-42.667 42.667-42.667zM224 618.667c0 159.058 128.942 288 288 288s288-128.942 288-288v-55.585c9.677-0.681 18.799-1.566 27.383-2.72 38.404-5.164 70.737-16.209 96.422-41.889 25.681-25.685 36.727-58.018 41.89-96.422 4.971-36.992 4.971-84.023 4.971-142.374v-4.685c0-58.351 0-105.382-4.971-142.374-5.163-38.404-16.209-70.737-41.89-96.418-25.685-25.685-58.018-36.732-96.422-41.894-36.992-4.971-84.023-4.971-142.374-4.971h-346.017c-58.351 0-105.383 0-142.374 4.971-38.405 5.163-70.74 16.209-96.422 41.894-25.682 25.681-36.728 58.014-41.891 96.418-4.973 36.992-4.972 84.023-4.972 142.374v4.685c-0.001 58.351-0.002 105.382 4.972 142.374 5.164 38.404 16.209 70.737 41.891 96.422 25.682 25.68 58.018 36.726 96.422 41.889 8.582 1.154 17.703 2.039 27.381 2.72v55.585zM512 842.667c-123.712 0-224-100.288-224-224v-53.48c15.936 0.147 32.918 0.147 50.986 0.147h346.023c18.065 0 35.055 0 50.991-0.147v53.48c0 123.712-100.288 224-224 224zM205.146 496.934c-31.308-4.211-47.887-11.908-59.695-23.718s-19.508-28.386-23.717-59.695c-4.333-32.23-4.401-74.944-4.401-136.188s0.068-103.957 4.401-136.188c4.209-31.309 11.908-47.885 23.717-59.695s28.388-19.507 59.695-23.718c32.228-4.331 74.943-4.399 136.187-4.399h341.333c61.244 0 103.957 0.068 136.188 4.399 31.309 4.211 47.885 11.908 59.695 23.718s19.507 28.386 23.718 59.695c4.331 32.23 4.399 74.944 4.399 136.188s-0.068 103.957-4.399 136.188c-4.211 31.309-11.908 47.885-23.718 59.695s-28.386 19.507-59.695 23.718c-32.23 4.331-74.944 4.399-136.188 4.399h-341.333c-61.244 0-103.959-0.068-136.187-4.399z" />
<glyph unicode="&#xe939;" d="M755.627 417.707l-128-128c-7.733-7.795-18.45-12.621-30.293-12.621s-22.56 4.826-30.291 12.618l-0.003 0.003c-7.795 7.733-12.621 18.45-12.621 30.293s4.826 22.56 12.618 30.291l0.003 0.003 98.133 97.707-98.133 97.707c-7.753 7.753-12.548 18.463-12.548 30.293 0 23.661 19.181 42.841 42.841 42.841 11.83 0 22.541-4.795 30.293-12.548l128-128c7.795-7.733 12.621-18.45 12.621-30.293s-4.826-22.56-12.618-30.291l-0.003-0.003zM542.293 478.293l-128 128c-7.753 7.753-18.463 12.548-30.293 12.548-23.661 0-42.841-19.181-42.841-42.841 0-11.83 4.795-22.541 12.548-30.293v0l55.467-55.040h-281.173c-23.564 0-42.667-19.103-42.667-42.667s19.103-42.667 42.667-42.667v0h281.173l-55.467-55.040c-7.795-7.733-12.621-18.45-12.621-30.293s4.826-22.56 12.618-30.291l0.003-0.003c7.733-7.795 18.45-12.621 30.293-12.621s22.56 4.826 30.291 12.618l128.003 128.003c7.795 7.733 12.621 18.45 12.621 30.293s-4.826 22.56-12.618 30.291l-0.003 0.003z" />
<glyph unicode="&#xe93a;" d="M853.333 21.333h-384c-47.128 0-85.333 38.205-85.333 85.333v0 42.667c0 23.564 19.103 42.667 42.667 42.667s42.667-19.103 42.667-42.667v0-42.667h384v682.667h-384v-42.667c0-23.564-19.103-42.667-42.667-42.667s-42.667 19.103-42.667 42.667v0 42.667c0 47.128 38.205 85.333 85.333 85.333v0h384c47.128 0 85.333-38.205 85.333-85.333v0-682.667c0-47.128-38.205-85.333-85.333-85.333v0z" />
<glyph unicode="&#xe93b;" glyph-name="oi-soft-map_tag-1" d="M512.154 362.517c106.039 0 192 85.965 192 192.001 0 106.039-85.961 192-192 192s-192-85.961-192-192c0-106.036 85.961-192.001 192-192.001zM512.154 447.697c-58.995 0-106.82 47.825-106.82 106.822 0 58.995 47.825 106.82 106.82 106.82s106.82-47.825 106.82-106.82c0-58.996-47.825-106.822-106.82-106.822zM907.605 465.843c55.164 247.195-139.383 494.006-395.605 494.006-256.15 0-450.714-247.149-395.599-494.036 42.542-200.516 214.572-395.264 317.245-496.828 43.972-43.494 112.734-43.494 156.706 0 102.677 101.568 274.722 296.333 317.252 496.858zM512 874.516c201.062 0 355.703-195.681 312.32-390.087-20.838-93.41-67.588-177.293-122.449-254.839-57.331-81.041-122.334-151.27-171.529-199.936-10.722-10.607-25.963-10.607-36.685 0-49.195 48.661-114.189 118.886-171.52 199.923-54.865 77.551-101.599 161.417-122.452 254.831-43.338 194.128 111.36 390.108 312.315 390.108z" />
<glyph unicode="&#xe93c;" glyph-name="oi-soft-moon-1" d="M898.867 454.11v0zM518.11 834.869v0zM314.69 106.112c-15.298 8.849-34.873 3.622-43.722-11.674-8.849-15.3-3.622-34.876 11.676-43.725l32.046 55.398zM114.714 218.645c8.849-15.3 28.425-20.527 43.723-11.678s20.525 28.425 11.676 43.721l-55.399-32.043zM906.667 448c0-217.967-176.7-394.667-394.667-394.667v-64c253.316 0 458.667 205.35 458.667 458.667h-64zM117.333 448c0 217.968 176.698 394.667 394.667 394.667v64c-253.315 0-458.667-205.352-458.667-458.667h64zM661.333 352c-135.492 0-245.333 109.841-245.333 245.333h-64c0-170.842 138.492-309.333 309.333-309.333v64zM871.479 470.656c-43.012-71.181-121.050-118.656-210.146-118.656v-64c112.422 0 210.803 59.994 264.926 149.559l-54.78 33.097zM416 597.333c0 89.096 47.475 167.134 118.656 210.147l-33.097 54.776c-89.566-54.121-149.559-152.501-149.559-264.924h64zM512 842.667c-3.776 0-8.205 1.703-11.418 5.048-2.722 2.833-3.354 5.514-3.503 6.598-0.179 1.329-0.090 5.182 4.48 7.944l33.097-54.776c21.47 12.972 28.373 36.723 25.847 55.398-2.62 19.414-17.929 43.788-48.503 43.788v-64zM926.259 437.559c-2.765-4.57-6.618-4.659-7.945-4.48-1.084 0.149-3.767 0.781-6.601 3.503-3.345 3.213-5.047 7.642-5.047 11.418h64c0 30.575-24.375 45.884-43.789 48.503-18.675 2.526-42.428-4.378-55.398-25.847l54.78-33.097zM512 53.333c-71.94 0-139.293 19.217-197.31 52.779l-32.046-55.398c67.496-39.044 145.866-61.38 229.356-61.38v64zM170.113 250.688c-33.562 58.018-52.78 125.372-52.78 197.312h-64c0-83.49 22.336-161.86 61.381-229.355l55.399 32.043z" />
<glyph unicode="&#xe93d;" glyph-name="oi-soft-pen-1" d="M601.566 857.98l-324.009-324.011c-18.264-18.262-29.417-29.415-39.112-41.844-11.423-14.643-21.216-30.49-29.206-47.258-6.782-14.229-11.769-29.193-19.935-53.692l-47.136-141.414c-8.169-24.503-1.791-51.52 16.475-69.786s45.283-24.644 69.788-16.478l141.411 47.138c24.502 8.166 39.465 13.154 53.696 19.934 16.765 7.991 32.611 17.783 47.255 29.205 12.429 9.698 23.582 20.851 41.843 39.113l324.011 324.012c64.917 64.915 64.917 170.164 0 235.080-64.913 64.915-170.163 64.915-235.081 0zM254.333 239.595l-36.069 36.070 31.079 93.239c9.049 27.145 12.786 38.182 17.671 48.431 5.99 12.57 13.332 24.448 21.896 35.43 6.982 8.951 15.183 17.229 35.417 37.466l251.349 251.346c10.372-26.027 27.93-57.439 57.532-87.040 29.598-29.602 61.013-47.155 87.036-57.53l-251.345-251.348c-20.237-20.233-28.514-28.433-37.466-35.418-10.98-8.563-22.859-15.906-35.429-21.897-10.249-4.885-21.286-8.623-48.433-17.668l-93.238-31.083zM771.243 648.004c-5.286 1.16-11.891 2.905-19.401 5.511-20.651 7.165-47.817 20.713-73.382 46.278s-39.113 52.73-46.276 73.382c-2.607 7.511-4.352 14.117-5.513 19.4l20.151 20.151c39.923 39.922 104.649 39.922 144.572 0 39.919-39.922 39.919-104.648 0-144.57l-20.151-20.151zM138.668 21.333c0-17.673 14.327-32 32-32h682.666v64h-682.666c-17.673 0-32-14.327-32-32z" />
<glyph unicode="&#xe93e;" glyph-name="oi-soft-ring-1" d="M928 160c-96 0-96 352-96 352 0 147.264-99.616 270.976-235.008 308.224 6.784 13.184 11.008 27.904 11.008 43.776 0 53.024-42.976 96-96 96s-96-42.976-96-96c0-15.872 4.224-30.592 11.008-43.776-135.392-37.248-235.008-160.96-235.008-308.224 0 0 0-352-96-352-17.664 0-32-14.336-32-32s14.336-32 32-32h292.512c-2.656-10.272-4.512-20.896-4.512-32 0-70.688 57.312-128 128-128s128 57.312 128 128c0 11.104-1.856 21.728-4.512 32h292.512c17.664 0 32 14.336 32 32s-14.336 32-32 32zM480 864c0 17.632 14.368 32 32 32s32-14.368 32-32-14.368-32-32-32-32 14.368-32 32zM256 512c0 141.152 114.848 256 256 256s256-114.848 256-256c0-3.776 0.128-93.408 12.576-184.64 2.24-16.416 5.888-42.56 12.544-71.36h-562.272c6.656 28.8 10.304 54.944 12.544 71.36 12.48 91.232 12.608 180.864 12.608 184.64zM512 0c-35.296 0-64 28.704-64 64 0 4.352 0.8 9.408 2.496 15.968l12.416 48.032h98.144l12.448-48.032c1.696-6.56 2.496-11.616 2.496-15.968 0-35.296-28.704-64-64-64zM195.136 160c11.648 19.616 20.352 41.888 27.136 64h579.456c6.784-22.112 15.488-44.384 27.136-64h-633.728z" />
<glyph unicode="&#xe93f;" glyph-name="oi-soft-rocket-1" d="M209.696 76.736c-20.096-41.792-32.8-69.664-144.704-73.728 3.2 107.968 23.808 119.552 64.992 140.096 17.28 8.64 38.816 19.36 62.112 37.248l-38.976 49.76c-18.4-14.144-35.328-21.568-51.68-29.696-68.64-34.24-100.992-67.936-100.992-228.64l0.544-32.704 31.456 0.704c169.632 0 201.344 38.336 233.12 104.32 6.944 14.464 10.816 24.256 22.56 43.744l-47.456 43.104c-14.208-19.424-23.104-37.856-30.976-54.144zM704.96 771.328c-70.784 0-128.352-57.568-128.352-128.32s57.6-128.352 128.352-128.352 128.352 57.6 128.352 128.352c0 70.752-57.6 128.352-128.352 128.352zM704.96 578.912c-35.328 0-64.096 28.768-64.096 64.064s28.736 64.064 64.096 64.064 64.096-28.768 64.096-64.064c0-35.328-28.736-64.064-64.096-64.064zM1023.776 930.688c-0.96 15.968-13.632 28.768-29.6 29.952 0 0-179.072 13.056-351.36-51.296-62.944-23.52-114.752-60.736-163.104-117.152-40.32-47.040-80.384-132.032-115.744-202.624-13.664-27.232-26.72-53.312-37.792-73.216h-178.016c-9.152 0-17.856-3.936-23.936-10.752l-117.312-127.136c-7.488-8.48-9.984-20.256-6.528-31.008s12.32-18.944 23.328-21.44l190.944-43.648c13.024-16.064 34.688-40.096 69.376-78.592l72.352-80.192 38.944-164.736c2.56-10.848 10.592-19.616 21.216-23.040 3.232-1.024 6.592-1.568 9.888-1.568 7.552 0 14.944 2.656 20.832 7.712l118.56 117.952c7.072 6.048 11.168 14.944 11.168 24.288v165.12c15.936 9.888 44.192 25.152 70.784 40.032 72.448 40.48 180.64 90.912 225.472 130.784 63.168 56.128 86.144 97.28 108.736 158.112 53.696 144.672 42.304 344.032 41.76 352.448zM922.016 600.544c-19.712-53.088-37.568-84.832-91.264-132.544-39.648-35.232-148.128-85.824-214.208-122.784-49.312-27.552-78.848-43.648-91.808-54.24-7.456-6.048-11.776-15.168-11.776-24.768v-167.264l-67.52-74.208-28.768 121.6c-1.248 5.216-3.776 10.048-7.392 14.048-58.848 65.216-147.744 163.808-154.56 171.648-4.448 5.408-10.624 9.248-17.568 10.848l-146.592 33.536 71.904 76h182.048c11.136 0 21.472 5.792 27.264 15.232 14.080 22.912 30.4 55.552 49.344 93.28 32.064 63.936 71.936 148.544 107.136 189.632 41.6 48.512 83.808 79.008 136.896 98.848 118.112 44.128 239.968 48.768 295.68 48.352 1.024-59.008-1.184-195.808-38.848-297.248z" />
<glyph unicode="&#xe940;" glyph-name="oi-soft-search-1" d="M727.006 293.359c52.574 65.724 84.011 149.090 84.011 239.799 0 212.174-172.002 384.175-384.175 384.175-212.174 0-384.175-172.001-384.175-384.175s172.001-384.175 384.175-384.175c90.709 0 174.076 31.437 239.799 84.011l241.822-241.826c16.67-16.67 43.699-16.67 60.369 0s16.67 43.699 0 60.369l-241.826 241.822zM426.842 233.929c-165.261 0-299.231 133.969-299.231 299.23s133.97 299.231 299.231 299.231c165.261 0 299.23-133.97 299.23-299.231s-133.969-299.23-299.23-299.23z" />
<glyph unicode="&#xe941;" glyph-name="oi-soft-share" d="M787.692 14.769c-65.26 0-118.154 52.894-118.154 118.154s52.894 118.154 118.154 118.154c65.26 0 118.154-52.894 118.154-118.154s-52.894-118.154-118.154-118.154v0zM236.308 329.846c-65.26 0-118.154 52.894-118.154 118.154 0 65.221 52.894 118.154 118.154 118.154s118.154-52.933 118.154-118.154c0-65.26-52.894-118.154-118.154-118.154v0zM787.692 881.231c65.26 0 118.154-52.894 118.154-118.154s-52.894-118.154-118.154-118.154c-65.26 0-118.154 52.894-118.154 118.154s52.894 118.154 118.154 118.154v0zM787.692 329.846c-69.711 0-130.56-36.431-165.573-91.057l-210.905 120.517c13.627 26.782 22.016 56.635 22.016 88.694 0 19.81-3.82 38.558-9.255 56.596l219.412 125.361c35.958-38.991 87.079-63.803 144.305-63.803 108.78 0 196.923 88.143 196.923 196.923s-88.143 196.923-196.923 196.923c-108.78 0-196.923-88.143-196.923-196.923 0-19.81 3.82-38.558 9.255-56.635l-219.412-125.322c-35.958 38.951-87.079 63.803-144.305 63.803-108.78 0-196.923-88.143-196.923-196.923s88.143-196.923 196.923-196.923c44.898 0 85.819 15.596 118.942 40.881l-0.788-1.497 238.474-136.271c-0.788-7.089-2.166-13.942-2.166-21.268 0-108.78 88.143-196.923 196.923-196.923s196.923 88.143 196.923 196.923c0 108.78-88.143 196.923-196.923 196.923v0z" />
<glyph unicode="&#xe942;" glyph-name="oi-soft-shopping-1" d="M85.333 917.333c-23.564 0-42.667-19.103-42.667-42.667s19.103-42.667 42.667-42.667h52.020l152.074-608.294c-44.829-19.913-76.094-64.823-76.094-117.039 0-70.694 57.308-128 128-128s128 57.306 128 128c0 14.959-2.569 29.321-7.283 42.667h185.233c-4.715-13.346-7.283-27.708-7.283-42.667 0-70.694 57.306-128 128-128s128 57.306 128 128c0 70.694-57.306 128-128 128h-393.353l-21.333 85.333h414.687c88.073 0 140.881 55.642 170.185 117.082 28.638 60.041 38.605 131.796 42.082 183.988 4.838 72.684-55.241 125.597-121.766 125.597h-611.854l-26.508 106.030c-9.497 37.988-43.629 64.637-82.786 64.637h-52.020zM768 405.333h-436.020l-64 256h590.52c23.599 0 37.769-17.355 36.621-34.593-3.243-48.701-12.322-107.564-33.954-152.922-20.966-43.955-49.643-68.484-93.167-68.484zM768 64.265c-23.42 0-42.402 18.982-42.402 42.402s18.982 42.402 42.402 42.402c23.42 0 42.402-18.982 42.402-42.402s-18.982-42.402-42.402-42.402zM298.93 106.667c0-23.42 18.985-42.402 42.403-42.402s42.403 18.982 42.403 42.402c0 23.42-18.985 42.402-42.403 42.402s-42.403-18.982-42.403-42.402z" />
<glyph unicode="&#xe943;" d="M926.293 417.707l-128-128c-7.733-7.795-18.45-12.621-30.293-12.621s-22.56 4.826-30.291 12.618l-0.003 0.003c-7.795 7.733-12.621 18.45-12.621 30.293s4.826 22.56 12.618 30.291l0.003 0.003 98.133 97.707-98.133 97.707c-7.753 7.753-12.548 18.463-12.548 30.293 0 23.661 19.181 42.841 42.841 42.841 11.83 0 22.541-4.795 30.293-12.548l128-128c7.795-7.733 12.621-18.45 12.621-30.293s-4.826-22.56-12.618-30.291l-0.003-0.003zM712.96 478.293l-128 128c-7.753 7.753-18.463 12.548-30.293 12.548-23.661 0-42.841-19.181-42.841-42.841 0-11.83 4.795-22.541 12.548-30.293v0l55.467-55.040h-281.173c-23.564 0-42.667-19.103-42.667-42.667s19.103-42.667 42.667-42.667v0h281.173l-55.467-55.040c-7.795-7.733-12.621-18.45-12.621-30.293s4.826-22.56 12.618-30.291l0.003-0.003c7.733-7.795 18.45-12.621 30.293-12.621s22.56 4.826 30.291 12.618l128.003 128.003c7.795 7.733 12.621 18.45 12.621 30.293s-4.826 22.56-12.618 30.291l-0.003 0.003z" />
<glyph unicode="&#xe944;" d="M554.667 21.333h-384c-47.128 0-85.333 38.205-85.333 85.333v0 682.667c0 47.128 38.205 85.333 85.333 85.333v0h384c47.128 0 85.333-38.205 85.333-85.333v0-42.667c0-23.564-19.103-42.667-42.667-42.667s-42.667 19.103-42.667 42.667v0 42.667h-384v-682.667h384v42.667c0 23.564 19.103 42.667 42.667 42.667s42.667-19.103 42.667-42.667v0-42.667c0-47.128-38.205-85.333-85.333-85.333v0z" />
<glyph unicode="&#xe945;" glyph-name="oi-soft-store-1" d="M213.333 832c-47.128 0-85.333-38.205-85.333-85.333v-78.409l-64.424-193.271c-16.62-49.865 15.247-101.197 64.424-110.741v-257.579c0-47.13 38.205-85.333 85.333-85.333h597.333c47.13 0 85.333 38.204 85.333 85.333v257.579c49.178 9.545 81.045 60.877 64.422 110.741l-64.422 193.271v78.409c0 47.128-38.204 85.333-85.333 85.333h-597.333zM640 106.667v128c0 70.694-57.306 128-128 128s-128-57.306-128-128v-128h-170.667v256h597.333v-256h-170.667zM469.333 106.667v128c0 23.565 19.102 42.667 42.667 42.667s42.667-19.102 42.667-42.667v-128h-85.333zM144.53 448l56.889 170.667h68.215l-28.445-170.667h-96.659zM327.7 448l28.445 170.667h113.189v-170.667h-141.634zM554.667 448v170.667h113.19l28.442-170.667h-141.632zM782.81 448l-28.442 170.667h68.211l56.892-170.667h-96.661zM810.667 746.667v-42.667h-597.333v42.667h597.333z" />
<glyph unicode="&#xe946;" glyph-name="oi-soft-sun-1" d="M469.333 917.333c0 23.564 19.102 42.667 42.667 42.667s42.667-19.103 42.667-42.667v-85.333c0-23.564-19.102-42.667-42.667-42.667s-42.667 19.103-42.667 42.667v85.333zM768 448c0-141.385-114.615-256-256-256s-256 114.615-256 256c0 141.385 114.615 256 256 256s256-114.615 256-256zM343.965 448c0-92.804 75.232-168.034 168.035-168.034s168.034 75.23 168.034 168.034c0 92.803-75.23 168.035-168.034 168.035s-168.035-75.232-168.035-168.035zM874.039 810.039c-16.666 16.663-43.678 16.663-60.339 0l-60.343-60.34c-16.661-16.663-16.661-43.677 0-60.34 16.666-16.662 43.678-16.662 60.343 0l60.339 60.34c16.661 16.662 16.661 43.677 0 60.34zM42.667 405.333c-23.564 0-42.667 19.102-42.667 42.667s19.103 42.667 42.667 42.667h85.333c23.564 0 42.667-19.102 42.667-42.667s-19.103-42.667-42.667-42.667h-85.333zM149.961 810.039c-16.662-16.662-16.662-43.677 0-60.34l60.34-60.34c16.662-16.662 43.677-16.662 60.34 0s16.663 43.677 0 60.34l-60.34 60.34c-16.663 16.663-43.677 16.663-60.34 0zM469.333 64c0 23.565 19.102 42.667 42.667 42.667s42.667-19.102 42.667-42.667v-85.333c0-23.565-19.102-42.667-42.667-42.667s-42.667 19.102-42.667 42.667v85.333zM270.641 206.639c-16.662 16.666-43.677 16.666-60.34 0l-60.34-60.339c-16.663-16.661-16.663-43.678 0-60.339s43.677-16.661 60.34 0l60.34 60.339c16.663 16.666 16.663 43.678 0 60.339zM896 405.333c-23.565 0-42.667 19.102-42.667 42.667s19.102 42.667 42.667 42.667h85.333c23.565 0 42.667-19.102 42.667-42.667s-19.102-42.667-42.667-42.667h-85.333zM753.357 206.639c-16.661-16.661-16.661-43.674 0-60.339l60.343-60.339c16.661-16.661 43.674-16.661 60.339 0 16.661 16.661 16.661 43.678 0 60.339l-60.339 60.339c-16.666 16.666-43.678 16.666-60.343 0z" />
<glyph unicode="&#xe947;" glyph-name="oi-soft-trash_bin" d="M512 842.667c-41.749 0-77.35-26.668-90.544-63.997-5.89-16.663-24.172-25.397-40.835-19.507s-25.396 24.172-19.507 40.835c21.949 62.1 81.173 106.67 150.886 106.67 69.717 0 128.939-44.569 150.891-106.67 5.888-16.663-2.846-34.945-19.507-40.835-16.666-5.89-34.948 2.844-40.836 19.507-13.193 37.329-48.798 63.997-90.547 63.997zM117.333 704c0 17.673 14.327 32 32 32h725.338c17.673 0 32-14.327 32-32s-14.327-32-32-32h-725.338c-17.673 0-32 14.327-32 32zM252.377 599.462c-1.175 17.634-16.424 30.976-34.057 29.801s-30.976-16.424-29.801-34.058l19.774-296.606c3.648-54.733 6.594-98.94 13.505-133.632 7.185-36.066 19.406-66.193 44.647-89.805 25.241-23.616 56.113-33.805 92.578-38.575 35.074-4.587 79.382-4.587 134.234-4.587h37.495c54.852 0 99.157 0 134.234 4.587 36.463 4.77 67.337 14.959 92.578 38.575 25.242 23.612 37.461 53.739 44.646 89.805 6.908 34.692 9.856 78.899 13.504 133.632l19.776 296.606c1.173 17.634-12.169 32.882-29.803 34.058s-32.883-12.166-34.057-29.801l-19.627-294.361c-3.831-57.51-6.566-97.523-12.561-127.629-5.82-29.205-13.939-44.663-25.604-55.578-11.665-10.91-27.631-17.988-57.156-21.85-30.438-3.981-70.545-4.045-128.179-4.045h-32.998c-57.634 0-97.743 0.064-128.181 4.045-29.525 3.861-45.489 10.94-57.155 21.85-11.665 10.914-19.786 26.372-25.604 55.578-5.998 30.106-8.73 70.118-12.563 127.629l-19.625 294.361zM402.153 522.509c17.585 1.758 33.265-11.072 35.027-28.659l21.333-213.333c1.758-17.583-11.072-33.267-28.659-35.025-17.585-1.758-33.266 11.072-35.025 28.659l-21.333 213.333c-1.759 17.583 11.072 33.267 28.657 35.025zM650.513 487.484c1.758 17.583-11.072 33.267-28.659 35.025-17.583 1.758-33.267-11.072-35.025-28.659l-21.333-213.333c-1.758-17.583 11.072-33.267 28.659-35.025 17.583-1.758 33.263 11.072 35.025 28.659l21.333 213.333z" />
<glyph unicode="&#xe948;" glyph-name="oi-soft-user_graduate" d="M531.081 912.829c-12.011 6.006-26.15 6.006-38.161 0l-298.667-149.333c-14.455-7.227-23.586-22.001-23.586-38.162s9.131-30.935 23.586-38.162l86.752-43.376c-16.024-33.459-25.004-70.941-25.004-110.462 0-79.377 36.125-150.315 92.831-197.269-136.171-47.889-220.831-154.62-220.831-272.064 0-23.565 19.103-42.667 42.667-42.667s42.667 19.102 42.667 42.667c0 96.828 100.493 213.333 298.667 213.333s298.667-116.506 298.667-213.333c0-23.565 19.102-42.667 42.667-42.667s42.667 19.102 42.667 42.667c0 117.444-84.659 224.175-220.83 272.064 56.704 46.955 92.83 117.892 92.83 197.269 0 39.521-8.981 77.003-25.003 110.462l86.75 43.376c14.455 7.227 23.586 22.001 23.586 38.162s-9.131 30.935-23.586 38.162l-298.667 149.333zM512 362.667c94.255 0 170.667 76.412 170.667 170.667 0 25.876-5.734 50.357-16.009 72.292l-135.578-67.788c-12.011-6.006-26.15-6.006-38.161 0l-135.575 67.788c-10.275-21.935-16.011-46.415-16.011-72.292 0-94.255 76.41-170.667 170.667-170.667zM360.403 699.501l-51.664 25.832 203.261 101.631 203.26-101.631-203.26-101.631-151.597 75.799z" />
<glyph unicode="&#xe949;" glyph-name="oi-soft-user_id" d="M384 693.333c-64.801 0-117.333-52.532-117.333-117.333s52.532-117.333 117.333-117.333c64.802 0 117.333 52.531 117.333 117.333s-52.531 117.333-117.333 117.333zM330.667 576c0 29.455 23.878 53.333 53.333 53.333s53.333-23.878 53.333-53.333c0-29.455-23.878-53.333-53.333-53.333s-53.333 23.878-53.333 53.333zM384 437.333c-51.019 0-98.79-10.27-134.991-28.373-34.286-17.143-67.676-46.746-67.676-88.96l-0.006-2.667c-0.065-21.773-0.175-58.441 34.575-83.597 16.126-11.669 37.405-19.115 63.764-23.859 26.603-4.787 60.694-7.211 104.333-7.211s77.73 2.423 104.333 7.211c26.359 4.745 47.637 12.19 63.765 23.859 34.748 25.156 34.641 61.824 34.573 83.597l-0.004 2.667c0 42.214-33.391 71.817-67.678 88.96-36.198 18.103-83.968 28.373-134.989 28.373zM245.333 320c0 4.915 4.815 17.975 32.298 31.718 25.569 12.783 63.131 21.615 106.369 21.615s80.798-8.832 106.368-21.615c27.482-13.743 32.299-26.803 32.299-31.718 0-25.792-1.643-29.747-8.098-34.419-5.205-3.767-15.927-8.819-37.568-12.715-21.397-3.849-51.306-6.199-93.001-6.199s-71.603 2.351-93 6.199c-21.641 3.895-32.362 8.947-37.57 12.715-6.455 4.672-8.097 8.627-8.097 34.419zM810.667 416c17.673 0 32 14.327 32 32s-14.327 32-32 32h-170.667c-17.673 0-32-14.327-32-32s14.327-32 32-32h170.667zM842.667 576c0-17.673-14.327-32-32-32h-213.333c-17.673 0-32 14.327-32 32s14.327 32 32 32h213.333c17.673 0 32-14.327 32-32zM810.667 288c17.673 0 32 14.327 32 32s-14.327 32-32 32h-128c-17.673 0-32-14.327-32-32s14.327-32 32-32h128zM424.259 821.333h175.48c78.413 0.001 140.518 0.001 189.124-6.534 50.022-6.725 90.513-20.896 122.445-52.826 31.927-31.93 46.097-72.419 52.826-122.442 6.532-48.606 6.532-110.712 6.532-189.121v-4.817c0-78.413 0-140.518-6.532-189.124-6.729-50.022-20.898-90.513-52.826-122.445-31.932-31.927-72.422-46.097-122.445-52.826-48.606-6.532-110.711-6.532-189.12-6.532h-175.484c-78.41 0-140.519 0-189.125 6.532-50.023 6.729-90.512 20.898-122.442 52.826-31.93 31.932-46.1 72.422-52.826 122.445-6.535 48.606-6.535 110.711-6.534 189.124v4.813c-0.001 78.413-0.001 140.519 6.534 189.125 6.725 50.023 20.896 90.512 52.826 122.442s72.419 46.1 122.442 52.826c48.606 6.535 110.714 6.535 189.124 6.534zM243.663 751.37c-42.927-5.772-67.658-16.594-85.715-34.651s-28.88-42.789-34.651-85.715c-5.895-43.847-5.963-101.647-5.963-183.004s0.068-139.157 5.963-183.006c5.772-42.923 16.594-67.657 34.651-85.713s42.789-28.881 85.715-34.65c43.847-5.897 101.646-5.965 183.004-5.965h170.667c81.357 0 139.157 0.068 183.006 5.965 42.923 5.769 67.657 16.593 85.713 34.65s28.881 42.79 34.65 85.713c5.897 43.849 5.965 101.649 5.965 183.006s-0.068 139.157-5.965 183.004c-5.769 42.927-16.593 67.658-34.65 85.715s-42.79 28.88-85.713 34.651c-43.849 5.895-101.649 5.963-183.006 5.963h-170.667c-81.358 0-139.157-0.068-183.004-5.963z" />
<glyph unicode="&#xe94a;" glyph-name="oi-soft-widget-1" d="M744.448 885.333c-38.336 0.001-70.302 0.002-95.68-3.409-26.786-3.601-50.97-11.523-70.4-30.957-19.435-19.433-27.358-43.617-30.959-70.403-3.413-25.377-3.409-57.344-3.409-95.678v-4.438c0-38.335-0.004-70.302 3.409-95.679 3.601-26.786 11.524-50.97 30.959-70.401 19.43-19.435 43.614-27.358 70.4-30.959 25.378-3.413 57.344-3.409 95.68-3.409h4.437c38.336 0 70.302-0.004 95.68 3.409 26.786 3.601 50.97 11.524 70.4 30.959 19.435 19.431 27.358 43.615 30.959 70.401 3.413 25.377 3.409 57.344 3.409 95.679v4.437c0 38.335 0.004 70.302-3.409 95.68-3.601 26.786-11.524 50.969-30.959 70.403-19.43 19.433-43.614 27.355-70.4 30.957-25.378 3.412-57.344 3.411-95.68 3.409h-4.437zM623.62 805.712c5.559 5.56 13.986 10.135 33.677 12.782 20.608 2.771 48.239 2.839 89.37 2.839s68.762-0.068 89.37-2.839c19.691-2.647 28.117-7.222 33.677-12.782s10.133-13.987 12.783-33.676c2.769-20.609 2.837-48.239 2.837-89.37s-0.068-68.76-2.837-89.37c-2.65-19.689-7.223-28.116-12.783-33.676s-13.986-10.135-33.677-12.782c-20.608-2.771-48.239-2.839-89.37-2.839s-68.762 0.068-89.37 2.839c-19.691 2.647-28.117 7.222-33.677 12.782s-10.133 13.987-12.783 33.676c-2.769 20.61-2.837 48.239-2.837 89.37s0.068 68.76 2.837 89.37c2.65 19.689 7.223 28.116 12.783 33.676zM275.115 416c-38.335 0-70.302 0.004-95.68-3.409-26.786-3.601-50.969-11.524-70.403-30.959-19.433-19.43-27.355-43.614-30.957-70.4-3.412-25.378-3.411-57.344-3.409-95.68v-4.437c-0.001-38.336-0.002-70.302 3.409-95.68 3.601-26.786 11.523-50.97 30.957-70.4 19.433-19.435 43.617-27.358 70.403-30.959 25.378-3.413 57.344-3.409 95.68-3.409h4.437c38.335 0 70.302-0.004 95.679 3.409 26.786 3.601 50.97 11.524 70.401 30.959 19.435 19.43 27.358 43.614 30.959 70.4 3.413 25.378 3.409 57.344 3.409 95.68v4.437c0 38.336 0.004 70.302-3.409 95.68-3.601 26.786-11.524 50.97-30.959 70.4-19.431 19.435-43.615 27.358-70.401 30.959-25.377 3.413-57.343 3.409-95.678 3.409h-4.438zM154.288 336.38c5.56 5.559 13.987 10.133 33.676 12.783 20.609 2.769 48.239 2.837 89.37 2.837s68.76-0.068 89.37-2.837c19.689-2.65 28.116-7.223 33.676-12.783s10.135-13.986 12.782-33.677c2.771-20.608 2.839-48.239 2.839-89.37s-0.068-68.762-2.839-89.37c-2.647-19.691-7.222-28.117-12.782-33.677s-13.987-10.133-33.676-12.783c-20.61-2.769-48.239-2.837-89.37-2.837s-68.76 0.068-89.37 2.837c-19.689 2.65-28.116 7.223-33.676 12.783s-10.135 13.986-12.782 33.677c-2.771 20.608-2.839 48.239-2.839 89.37s0.068 68.762 2.839 89.37c2.647 19.691 7.222 28.117 12.782 33.677zM74.667 682.667c0 111.93 90.737 202.667 202.667 202.667s202.667-90.737 202.667-202.667c0-111.93-90.737-202.667-202.667-202.667s-202.667 90.737-202.667 202.667zM277.333 821.333c-76.583 0-138.667-62.083-138.667-138.667s62.083-138.667 138.667-138.667c76.584 0 138.667 62.083 138.667 138.667s-62.083 138.667-138.667 138.667zM544 213.333c0 111.927 90.739 202.667 202.667 202.667 111.932 0 202.667-90.739 202.667-202.667 0-111.932-90.735-202.667-202.667-202.667-111.927 0-202.667 90.735-202.667 202.667zM746.667 352c-76.582 0-138.667-62.084-138.667-138.667s62.084-138.667 138.667-138.667c76.582 0 138.667 62.084 138.667 138.667s-62.084 138.667-138.667 138.667z" />
<glyph unicode="&#xe94b;" glyph-name="oi-solid-arrows_down" d="M768 192h-128l192-256 192 256h-128v768h-128v-768zM128 192h-128l192-256 192 256h-128v768h-128v-768z" />
<glyph unicode="&#xe94c;" glyph-name="oi-solid-arrows_left" d="M256 192v128l-256-192 256-192v128h768v128h-768zM256 832v128l-256-192 256-192v128h768v128h-768z" />
<glyph unicode="&#xe94d;" glyph-name="oi-solid-arrows_left_right_out" d="M743.3 448l-144.8-144.8-36.2 36.2 108.6 108.6-108.6 108.6 36.2 36.2 144.8-144.8zM425.5 303.2l36.2 36.2-108.6 108.6 108.6 108.6-36.2 36.2-144.8-144.8 144.8-144.8z" />
<glyph unicode="&#xe94e;" glyph-name="oi-solid-arrows_right" d="M768 192v128l256-192-256-192v128h-768v128h768zM768 832v128l256-192-256-192v128h-768v128h768z" />
<glyph unicode="&#xe94f;" glyph-name="oi-solid-arrows_up" d="M768 704h-128l192 256 192-256h-128v-768h-128v768zM128 704h-128l192 256 192-256h-128v-768h-128v768z" />
<glyph unicode="&#xe950;" glyph-name="oi-solid-arrows_up_down_out" d="M620.6 397.7l36.2-36.2-144.8-144.8-144.8 144.8 36.2 36.2 108.6-108.6 108.6 108.6zM512 606.9l108.6-108.6 36.2 36.2-144.8 144.8-144.8-144.8 36.2-36.2 108.6 108.6z" />
<glyph unicode="&#xe951;" glyph-name="oi-solid-arrows_verticle" d="M128 704h-128l192 256 192-256h-128v-768h-128v768zM896 192h128l-192-256-192 256h128v768h128v-768z" />
<glyph unicode="&#xe952;" glyph-name="oi-solid-assignment" d="M783.047 960v-301.172h-60.235v240.938h-662.578v-903.516h662.578v120.469h60.235v-180.703h-783.047v1023.985h783.047zM852.076 649.967c11.806 11.806 30.84 11.806 42.646 0l120.469-120.469c11.746-11.746 11.746-30.78 0-42.586l-361.407-361.406c-5.662-5.602-13.312-8.795-21.323-8.795h-120.469c-16.624 0-30.117 13.493-30.117 30.117v120.469c0 8.011 3.193 15.661 8.795 21.262zM769.254 481.974l-227.144-227.144v-77.883h77.883l227.144 227.144-77.883 77.883zM361.406 297.415v-60.235h-180.702v60.235h180.703zM481.876 417.885v-60.235h-301.173v60.235h301.172zM873.399 586.119l-61.559-61.56 77.883-77.883 61.56 61.559-77.883 77.883zM602.344 779.291v-240.938h-421.64v240.938h421.641zM542.109 719.056h-301.171v-120.468h301.172v120.468z" />
<glyph unicode="&#xe953;" glyph-name="oi-solid-check" d="M726.626 585.37l-342.629-342.627-150.627 150.626 45.255 45.257 105.373-105.374 297.373 297.373 45.257-45.255z" />
<glyph unicode="&#xe954;" glyph-name="oi-solid-design-1" d="M282.733 773.867l-96.6-96.6 36.267-36.2 48.267 48.267 24.133-24.133-48.267-48.267 48.267-48.267 48.267 48.267 24.133-24.133-48.267-48.267 48.267-48.267 96.533 96.533zM726.467 759l-91-91 96.533-96.533 91 91c-13.077 18.386-27.443 36.11-43.933 52.6s-34.215 30.856-52.6 43.933zM587.2 619.733l-362.067-362.067-24.133-120.667 120.667 24.133 362.067 362.067zM656.8 399.733l-96.533-96.533 48.267-48.267 48.267 48.267 24.133-24.133-48.267-48.267 48.267-48.267 48.267 48.267 24.133-24.133-48.267-48.267 36.2-36.267 96.6 96.6z" />
<glyph unicode="&#xe955;" glyph-name="oi-solid-email-1" d="M160 736h704l32-32v-512l-32-32h-704l-32 32v512l32 32zM192 631.659v-407.659h640v407.669l-320.004-290.916-319.996 290.906zM781.222 672h-538.455l269.228-244.753 269.227 244.753z" />
<glyph unicode="&#xe956;" glyph-name="oi-solid-exit_full_screen" d="M467.526 403.526v-378.758h-61.516v273.749l-362.457-362.518-43.554 43.554 362.517 362.457h-273.748v61.516h378.758zM980.477 960l43.492-43.492-362.456-362.517h273.749v-61.517h-378.758v378.758h61.517v-273.687l362.456 362.456z" />
<glyph unicode="&#xe957;" glyph-name="oi-solid-forms-1" d="M597.333 618.667h-398.222c-15.709 0-28.444 12.735-28.444 28.444v0 113.778c0 15.709 12.735 28.444 28.444 28.444v0h398.222c15.709 0 28.444-12.735 28.444-28.444v0-113.778c0-15.709-12.735-28.444-28.444-28.444v0zM227.556 675.556h341.333v58.596h-341.333zM597.333 559.502h-398.222c-15.709 0-28.444-12.735-28.444-28.444v0-111.502c0-15.709 12.735-28.444 28.444-28.444v0h323.129l103.538 105.244v34.702c0 15.709-12.735 28.444-28.444 28.444v0zM568.889 448h-341.333v56.889h341.333zM314.596 63.716v1.707l9.102 39.538h-209.92v741.262h568.889v-291.556l56.889 53.76v266.24c0 15.709-12.735 28.444-28.444 28.444v0h-625.778c-15.709 0-28.444-12.735-28.444-28.444v0-796.444c0-15.709 12.735-28.444 28.444-28.444v0h227.556c0.262 5.117 0.871 9.901 1.812 14.565l-0.106-0.627zM625.778 414.72l-22.187-22.471c11.257 2.38 19.949 11.168 22.157 22.29l0.030 0.181zM170.667 193.707c0-15.709 12.735-28.444 28.444-28.444v0h137.671l8.533 36.978 3.698 15.644v1.422h-121.458v58.027h180.338l56.889 56.889h-265.671c-15.709 0-28.444-12.735-28.444-28.444v0zM952.604 485.831l-95.858 95.858c-8.292 8.314-19.759 13.458-32.427 13.458s-24.135-5.144-32.426-13.457l-0.001-0.001-389.973-392.249-32.142-136.818c-0.587-2.75-0.923-5.91-0.923-9.148 0-22.095 15.648-40.536 36.467-44.845l0.297-0.051c1.322-0.141 2.856-0.221 4.409-0.221s3.087 0.080 4.598 0.237l-0.189-0.016c1.582-0.271 3.404-0.426 5.262-0.426s3.68 0.155 5.454 0.453l-0.192-0.027 137.956 30.436 389.689 390.542c8.298 8.246 13.433 19.665 13.433 32.284s-5.136 24.038-13.431 32.282l-0.002 0.002zM533.902 80.782l-104.107-23.040 25.316 103.253 292.409 295.538 80.213-80.213zM859.876 408.462l-80.213 80.213 45.227 44.658 80.782-80.782z" />
<glyph unicode="&#xe958;" glyph-name="oi-solid-horizontal_arrows-1" d="M256 64v-128l-256 192 256 192v-128h768v-128h-768zM768 832v128l256-192-256-192v128h-768v128h768z" />
<glyph unicode="&#xe959;" glyph-name="oi-solid-multi_arrows-1" d="M632.471 839.529c0 33.267-26.968 60.235-60.235 60.235h-120.471c-33.267 0-60.235-26.968-60.235-60.235v-227.352c-30.916-67.351-68.928-139.544-107.716-189.229-39.095-50.078-102.038-106.837-157.883-152.681-1.904-1.562-3.796-3.11-5.674-4.64l-68.843 68.841c-18.973 18.974-51.414 5.536-51.414-21.295v-198.349c0-16.634 13.484-30.118 30.118-30.118h198.349c26.831 0 40.269 32.44 21.295 51.415l-43.902 43.902c56.446 46.539 126.163 108.907 172.915 168.794 26.027 33.34 50.686 73.272 72.99 114.202v-255.96h-92.463c-41.483 0-61.033-51.224-30.101-78.863l151.443-135.32c17.077-15.26 42.871-15.326 60.026-0.156l153.030 135.32c31.16 27.556 11.671 79.019-29.928 79.019h-91.537v255.96c22.304-40.93 46.963-80.862 72.99-114.202 46.752-59.887 116.469-122.255 172.915-168.794l-43.902-43.902c-18.974-18.974-5.536-51.415 21.295-51.415h198.349c16.634 0 30.118 13.483 30.118 30.118v198.349c0 26.831-32.44 40.269-51.415 21.295l-68.841-68.841c-1.879 1.53-3.77 3.078-5.675 4.64-55.844 45.845-118.788 102.603-157.882 152.681-38.788 49.685-76.8 121.879-107.716 189.229v227.352z" />
<glyph unicode="&#xe95a;" glyph-name="oi-solid-note" d="M783.059 899.733v-53.007l-60.235-60.235v53.007h-662.589v-783.059h662.588v233.713l60.235 60.235v-354.183h-783.058v903.53h783.059zM224.678 339.545c51.2 4.819 82.522-57.826 101.797-105.412 15.059-36.743 20.48-49.393 38.551-51.2s47.586 31.323 60.235 54.212c8.816 14.139 27.424 18.453 41.563 9.637s18.453-27.424 9.637-41.562c-4.819-9.035-49.393-85.534-109.628-85.534h-4.819c-37.346 2.409-65.054 25.901-90.353 88.546s-41.563 68.066-41.563 68.066c-26.307-33.458-44.684-74.348-51.617-119.021l-0.185-1.45c-3.493-16.633-19.808-27.285-36.442-23.793-16.633 3.493-27.285 19.809-23.793 36.443 10.843 50.597 42.165 165.646 106.617 171.068zM361.412 598.557v-60.235h-180.706v60.235h180.706zM481.883 719.027v-60.235h-301.177v60.235h301.176zM1014.965 709.992l-120.471 120.471c-5.459 5.502-13.023 8.909-21.383 8.909s-15.925-3.406-21.382-8.907l-361.414-361.414c-5.219-5.409-8.434-12.78-8.434-20.903 0-0.063 0-0.126 0.001-0.189v0.010-150.588h150.589c8.267 0.121 15.71 3.555 21.078 9.030l361.417 361.417c11.479 11.711 11.479 30.454 0 42.165zM619.821 357.615h-77.704v77.704l240.941 240.941 77.703-77.703-240.941-240.941zM903.53 641.324l-77.703 77.703 47.586 47.586 77.703-77.703-47.586-47.586z" />
<glyph unicode="&#xe95b;" glyph-name="oi-solid-pages-1" d="M192 768h-128v-832h704v128h-576v704zM768 960h-512v-832h704v640l-192 192zM832 256h-448v576h320v-128h128v-448z" />
<glyph unicode="&#xe95c;" glyph-name="oi-solid-paint-1" d="M454.882 396l-7.526-90h129.288l-7.526 90zM599.442 36l-19.436 230h-136.012l-19.436-230c-0.006-0.072-0.014 0.044-0.020-0.028-2.376-24.946 5.6-48.802 22.458-67.34 16.858-18.542 39.944-28.704 65.002-28.704s48.144 10.234 65.002 28.774c16.858 18.54 24.834 42.314 22.458 67.26-0.004 0.072-0.010-0.034-0.016 0.038zM532 27.646c0-11.004-8.996-19.926-20-19.926s-20 8.922-20 19.926v21.918c0 11.004 8.996 19.926 20 19.926s20-8.922 20-19.926v-21.918zM727.898 956l-67.486-201.828c-2.806-8.398-10.792-13.894-19.662-13.554-8.846 0.34-16.408 6.414-18.562 15l-50.3 200.382h-115.888v-217.024c0-11.004-8.996-19.926-20-19.926s-20 8.92-20 19.926v217.024h-68v-217.024c0-11.004-8.996-19.926-20-19.926s-20 8.92-20 19.926v217.024h-98v-326h604v326h-86.102zM210 485.25c0-27.34 20.892-49.25 48.234-49.25h507.532c27.34 0 48.234 21.908 48.234 49.25v104.75h-604v-104.75z" />
<glyph unicode="&#xe95d;" glyph-name="oi-solid-recycle_bin" d="M177.188 30.538c4.728-53.51 49.548-94.538 103.28-94.538h463.046c53.716 0 98.552 41.028 103.282 94.538l51.284 671.856h-772.176l51.284-671.856zM841.694 650.14l-46.948-614.992c-2.364-26.74-24.39-46.896-51.232-46.896h-463.046c-26.84 0-48.868 20.156-51.182 46.264l-46.996 615.624h659.404zM365.908 89.322c11.754 0.698 20.7 10.8 19.984 22.538l-20.274 404.468c-0.716 11.752-10.802 20.698-22.556 19.984s-20.7-10.818-19.986-22.554l20.274-404.468c0.716-11.752 10.82-20.682 22.558-19.968zM512 89.272c11.77 0 21.312 9.526 21.312 21.296v404.484c0 11.77-9.542 21.296-21.312 21.296s-21.314-9.526-21.314-21.296v-404.484c0.002-11.77 9.544-21.296 21.314-21.296zM658.092 89.322c11.756-0.714 21.842 8.216 22.556 19.968l20.258 404.468c0.696 11.736-8.232 21.84-19.986 22.554s-21.84-8.232-22.554-19.984l-20.258-404.468c-0.714-11.736 8.232-21.84 19.984-22.538zM878.23 830.966c0 0-68.156 11.328-86.68 16.958-16.602 5.052-161.59 27.132-161.59 27.132l-5.444 38.594c-3.74 26.636-25.548 46.35-51.232 46.35h-122.604c-25.65 0-47.456-19.714-51.232-46.35l-5.442-38.594c0 0-144.938-22.078-161.556-27.132-18.522-5.63-86.714-16.958-86.714-16.958-20.648-5.696-35.072-25.31-35.072-47.726v-43.852h802.672v43.852c0 22.416-14.424 42.030-35.106 47.726zM552.636 882.352h-81.272c-7.212 0-13.064 5.85-13.064 13.064s5.852 13.064 13.064 13.064h81.272c7.212 0 13.064-5.85 13.064-13.064s-5.852-13.064-13.064-13.064z" />
<glyph unicode="&#xe95e;" glyph-name="oi-solid-tables-1" d="M896 618.667h85.333v-597.333h-682.667v85.333h42.667v-42.667h597.333v512h-42.667zM853.333 149.333v597.333h-85.333v-42.667h42.667v-512h-597.333v42.667h-42.667v-85.333zM42.667 277.333v597.333h682.667v-597.333zM426.667 320v85.333h-213.333v-85.333zM426.667 661.333h-213.333v-85.333h213.333zM213.333 533.333v-85.333h213.333v85.333zM682.667 405.333h-213.333v-85.333h213.333zM682.667 533.333h-213.333v-85.333h213.333zM682.667 661.333h-213.333v-85.333h213.333zM85.333 704h597.333v128h-597.333zM85.333 576h85.333v85.333h-85.333zM85.333 448h85.333v85.333h-85.333zM85.333 320h85.333v85.333h-85.333z" />
<glyph unicode="&#xe95f;" glyph-name="oi-square_arrow_left" d="M509.551 906.667h4.898c98.492 0 175.676 0.001 235.9-8.096 61.641-8.288 110.285-25.582 148.463-63.761s55.471-86.819 63.761-148.462c8.094-60.223 8.094-137.409 8.094-235.899v-4.898c0-98.492 0-175.676-8.094-235.9-8.29-61.641-25.583-110.285-63.761-148.463s-86.822-55.471-148.463-63.761c-60.224-8.094-137.408-8.094-235.9-8.094h-4.898c-98.49 0-175.676 0-235.899 8.094-61.642 8.29-110.283 25.583-148.462 63.761s-55.473 86.822-63.761 148.463c-8.097 60.224-8.096 137.408-8.096 235.9v4.898c0 98.49-0.001 175.676 8.096 235.899 8.288 61.642 25.582 110.283 63.761 148.462s86.819 55.473 148.462 63.761c60.223 8.097 137.409 8.096 235.899 8.096zM282.179 835.142c-54.545-7.334-87.43-21.281-111.735-45.586s-38.253-57.189-45.586-111.735c-7.457-55.466-7.525-128.35-7.525-229.821s0.068-174.353 7.525-229.82c7.334-54.545 21.281-87.428 45.586-111.735s57.189-38.255 111.735-45.585c55.466-7.458 128.349-7.526 229.821-7.526 101.47 0 174.353 0.068 229.82 7.526 54.545 7.33 87.428 21.278 111.735 45.585s38.255 57.19 45.585 111.735c7.458 55.467 7.526 128.35 7.526 229.82s-0.068 174.355-7.526 229.821c-7.33 54.545-21.278 87.43-45.585 111.735s-57.19 38.253-111.735 45.586c-55.467 7.457-128.35 7.525-229.82 7.525-101.471 0-174.355-0.068-229.821-7.525zM491.959 598.627c12.497-12.497 12.497-32.758 0-45.255l-73.371-73.373h264.079c17.673 0 32-14.327 32-32s-14.327-32-32-32h-264.079l73.371-73.374c12.497-12.497 12.497-32.755 0-45.252s-32.755-12.497-45.252 0l-128.001 128c-12.497 12.497-12.497 32.755 0 45.252l128.001 128.001c12.497 12.497 32.755 12.497 45.252 0z" />
<glyph unicode="&#xe960;" glyph-name="oi-square_arrow_right" d="M509.551 906.667h4.898c98.492 0 175.676 0.001 235.9-8.096 61.641-8.288 110.285-25.582 148.463-63.761s55.471-86.819 63.761-148.462c8.094-60.223 8.094-137.409 8.094-235.899v-4.898c0-98.492 0-175.676-8.094-235.9-8.29-61.641-25.583-110.285-63.761-148.463s-86.822-55.471-148.463-63.761c-60.224-8.094-137.408-8.094-235.9-8.094h-4.898c-98.49 0-175.676 0-235.899 8.094-61.642 8.29-110.283 25.583-148.462 63.761s-55.473 86.822-63.761 148.463c-8.097 60.224-8.096 137.408-8.096 235.9v4.898c0 98.49-0.001 175.676 8.096 235.899 8.288 61.642 25.582 110.283 63.761 148.462s86.819 55.473 148.462 63.761c60.223 8.097 137.409 8.096 235.899 8.096zM282.179 835.142c-54.545-7.334-87.43-21.281-111.735-45.586s-38.253-57.189-45.586-111.735c-7.457-55.466-7.525-128.35-7.525-229.821s0.068-174.353 7.525-229.82c7.334-54.545 21.281-87.428 45.586-111.735s57.189-38.255 111.735-45.585c55.466-7.458 128.349-7.526 229.821-7.526 101.47 0 174.353 0.068 229.82 7.526 54.545 7.33 87.428 21.278 111.735 45.585s38.255 57.19 45.585 111.735c7.458 55.467 7.526 128.35 7.526 229.82s-0.068 174.355-7.526 229.821c-7.33 54.545-21.278 87.43-45.585 111.735s-57.19 38.253-111.735 45.586c-55.467 7.457-128.35 7.525-229.82 7.525-101.471 0-174.355-0.068-229.821-7.525zM532.041 598.627c12.497 12.497 32.755 12.497 45.252 0l128-128.001c12.497-12.497 12.497-32.755 0-45.252l-128-128c-12.497-12.497-32.755-12.497-45.252 0s-12.497 32.755 0 45.252l73.37 73.374h-264.077c-17.673 0-32 14.327-32 32s14.327 32 32 32h264.077l-73.37 73.373c-12.497 12.497-12.497 32.758 0 45.255z" />
<glyph unicode="&#xe961;" glyph-name="oi-square_arrow_right_up" d="M509.551 906.667h4.898c98.492 0 175.676 0.001 235.9-8.096 61.641-8.288 110.285-25.582 148.463-63.761s55.471-86.819 63.761-148.462c8.094-60.223 8.094-137.409 8.094-235.899v-4.898c0-98.492 0-175.676-8.094-235.9-8.29-61.641-25.583-110.285-63.761-148.463s-86.822-55.471-148.463-63.761c-60.224-8.094-137.408-8.094-235.9-8.094h-4.898c-98.49 0-175.676 0-235.899 8.094-61.642 8.29-110.283 25.583-148.462 63.761s-55.473 86.822-63.761 148.463c-8.097 60.224-8.096 137.408-8.096 235.9v4.898c0 98.49-0.001 175.676 8.096 235.899 8.288 61.642 25.582 110.283 63.761 148.462s86.819 55.473 148.462 63.761c60.223 8.097 137.409 8.096 235.899 8.096zM282.179 835.142c-54.545-7.334-87.43-21.281-111.735-45.586s-38.253-57.189-45.586-111.735c-7.457-55.466-7.525-128.35-7.525-229.821s0.068-174.353 7.525-229.82c7.334-54.545 21.281-87.428 45.586-111.735s57.189-38.255 111.735-45.585c55.466-7.458 128.349-7.526 229.821-7.526 101.47 0 174.353 0.068 229.82 7.526 54.545 7.33 87.428 21.278 111.735 45.585s38.255 57.19 45.585 111.735c7.458 55.467 7.526 128.35 7.526 229.82s-0.068 174.355-7.526 229.821c-7.33 54.545-21.278 87.43-45.585 111.735s-57.19 38.253-111.735 45.586c-55.467 7.457-128.35 7.525-229.82 7.525-101.471 0-174.355-0.068-229.821-7.525zM419.66 568.68c0 17.673 14.328 32 32 32h181.018c17.673 0 32-14.327 32-32v-181.019c0-17.673-14.327-32-32-32s-32 14.327-32 32v103.765l-186.731-186.735c-12.497-12.497-32.758-12.497-45.255 0s-12.497 32.759 0 45.257l186.733 186.732h-103.765c-17.673 0-32 14.327-32 32z" />
<glyph unicode="&#xe962;" glyph-name="oi-square_arrow_up" d="M509.551 906.667h4.898c98.492 0 175.676 0.001 235.9-8.096 61.641-8.288 110.285-25.582 148.463-63.761s55.471-86.819 63.761-148.462c8.094-60.223 8.094-137.409 8.094-235.899v-4.898c0-98.492 0-175.676-8.094-235.9-8.29-61.641-25.583-110.285-63.761-148.463s-86.822-55.471-148.463-63.761c-60.224-8.094-137.408-8.094-235.9-8.094h-4.898c-98.49 0-175.676 0-235.899 8.094-61.642 8.29-110.283 25.583-148.462 63.761s-55.473 86.822-63.761 148.463c-8.097 60.224-8.096 137.408-8.096 235.9v4.898c0 98.49-0.001 175.676 8.096 235.899 8.288 61.642 25.582 110.283 63.761 148.462s86.819 55.473 148.462 63.761c60.223 8.097 137.409 8.096 235.899 8.096zM282.179 835.142c-54.545-7.334-87.43-21.281-111.735-45.586s-38.253-57.189-45.586-111.735c-7.457-55.466-7.525-128.35-7.525-229.821s0.068-174.353 7.525-229.82c7.334-54.545 21.281-87.428 45.586-111.735s57.189-38.255 111.735-45.585c55.466-7.458 128.349-7.526 229.821-7.526 101.47 0 174.353 0.068 229.82 7.526 54.545 7.33 87.428 21.278 111.735 45.585s38.255 57.19 45.585 111.735c7.458 55.467 7.526 128.35 7.526 229.82s-0.068 174.355-7.526 229.821c-7.33 54.545-21.278 87.43-45.585 111.735s-57.19 38.253-111.735 45.586c-55.467 7.457-128.35 7.525-229.82 7.525-101.471 0-174.355-0.068-229.821-7.525zM361.373 513.293l128.001 128.001c12.497 12.497 32.755 12.497 45.252 0l128-128.001c12.497-12.497 12.497-32.755 0-45.252s-32.755-12.497-45.252 0l-73.374 73.371v-264.079c0-17.673-14.327-32-32-32s-32 14.327-32 32v264.079l-73.373-73.371c-12.497-12.497-32.758-12.497-45.255 0s-12.497 32.755 0 45.252z" />
<glyph unicode="&#xe963;" glyph-name="oi-solid-home" d="M1024 369.556l-512 397.426-512-397.428v162.038l512 397.426 512-397.428zM896 384v-384h-256v256h-256v-256h-256v384l384 288z" />
</font>
</defs>
</svg>
